<svg width="24" height="24" viewBox="0 0 24 24" fill="none" xmlns="http://www.w3.org/2000/svg">
<path d="M21 5V19C21 20.1046 20.1046 21 19 21H15.25C14.9739 21 14.75 20.7761 14.75 20.5V14.5H17.09C17.3276 14.5 17.5325 14.3328 17.58 14.1L17.94 12.3C17.9549 12.2273 17.9366 12.1517 17.8903 12.0938C17.8439 12.0358 17.7742 12.0015 17.7 12H14.75V8.75C14.75 8.61193 14.8619 8.5 15 8.5H17.5C17.7761 8.5 18 8.27614 18 8V6.5C18 6.22386 17.7761 6 17.5 6H15C13.3431 6 12 7.34315 12 9V12H10.77C10.4939 12 10.27 12.2239 10.27 12.5V14C10.27 14.2761 10.4939 14.5 10.77 14.5H12V20.5C12 20.7761 11.7761 21 11.5 21H5C3.89543 21 3 20.1046 3 19V5C3 3.89543 3.89543 3 5 3H19C20.1046 3 21 3.89543 21 5Z" fill="#1A1B1E" fill-opacity="0.5"/>
</svg>
