<svg width="54" height="54" viewBox="0 0 54 54" fill="none" xmlns="http://www.w3.org/2000/svg">
<g clip-path="url(#clip0_100_68)">
<path d="M27 0C11.7923 0 0 11.1443 0 26.19C0 34.0605 3.2265 40.8645 8.478 45.5625C8.91675 45.954 9.18675 46.5075 9.20025 47.1015L9.34875 51.9075C9.35956 52.2611 9.45707 52.6067 9.6327 52.9138C9.80833 53.2209 10.0567 53.4802 10.356 53.6688C10.6553 53.8574 10.9963 53.9697 11.3492 53.9957C11.702 54.0216 12.0558 53.9605 12.3795 53.8178L17.739 51.4552C18.1912 51.2528 18.7043 51.219 19.1835 51.3473C21.6473 52.0223 24.2663 52.3867 27 52.3867C42.2078 52.3867 54 41.2425 54 26.1968C54 11.151 42.2078 0 27 0Z" fill="url(#paint0_radial_100_68)"/>
<path d="M10.7866 33.8515L18.7178 21.2695C19.0162 20.7958 19.4095 20.3891 19.873 20.075C20.3364 19.761 20.86 19.5465 21.4105 19.445C21.9611 19.3435 22.5267 19.3573 23.0717 19.4854C23.6167 19.6135 24.1292 19.8533 24.5768 20.1895L30.8881 24.9212C31.1698 25.1322 31.5126 25.2456 31.8646 25.2444C32.2165 25.2432 32.5585 25.1273 32.8388 24.9145L41.3573 18.448C42.4913 17.584 43.9763 18.9475 43.2203 20.1557L35.2823 32.731C34.9839 33.2047 34.5906 33.6114 34.1271 33.9254C33.6637 34.2394 33.1401 34.4539 32.5896 34.5554C32.039 34.6569 31.4734 34.6432 30.9284 34.515C30.3834 34.3869 29.871 34.1471 29.4233 33.811L23.1121 29.0792C22.8303 28.8683 22.4875 28.7548 22.1356 28.756C21.7836 28.7573 21.4416 28.8731 21.1613 29.086L12.6428 35.5525C11.5088 36.4165 10.0238 35.0597 10.7866 33.8515Z" fill="white"/>
</g>
<defs>
<radialGradient id="paint0_radial_100_68" cx="0" cy="0" r="1" gradientUnits="userSpaceOnUse" gradientTransform="translate(9.045 54) scale(59.4 59.4)">
<stop stop-color="#0099FF"/>
<stop offset="0.6" stop-color="#A033FF"/>
<stop offset="0.9" stop-color="#FF5280"/>
<stop offset="1" stop-color="#FF7061"/>
</radialGradient>
<clipPath id="clip0_100_68">
<rect width="54" height="54" fill="white"/>
</clipPath>
</defs>
</svg>
