<svg width="116" height="46" viewBox="0 0 116 46" fill="none" xmlns="http://www.w3.org/2000/svg">
<path d="M64.7422 12.6129L64.9329 12.168C64.8511 12.3087 64.7876 12.4585 64.7422 12.6129Z" fill="#606161"/>
<path d="M54.0674 28.4322C53.7043 28.4322 53.3865 28.6092 53.1822 28.877C53.1686 28.8952 53.155 28.9134 53.1414 28.9315C52.2198 30.0392 51.1893 30.9199 50.0499 31.569C48.6426 32.3544 47.1354 32.7448 45.5375 32.7448C42.959 32.7448 40.7073 31.7688 38.7735 29.8167C36.8487 27.8738 35.8908 25.613 35.8908 23.0391C35.8908 20.4651 36.8305 18.1408 38.7144 16.1979C40.6256 14.2231 42.8864 13.238 45.4921 13.238C48.6971 13.238 51.2211 14.4547 53.0642 16.8834C53.0914 16.9242 53.1232 16.9605 53.1504 17.0014C53.3547 17.2511 53.6634 17.4145 54.0175 17.4145C54.6394 17.4145 55.1433 16.9106 55.1433 16.2887C55.1433 16.1025 55.0934 15.9255 55.0117 15.7711C54.9209 15.6531 54.821 15.5351 54.7166 15.4171C54.6667 15.358 54.6213 15.3036 54.5668 15.2445C52.1608 12.5253 49.151 11.168 45.5375 11.168C42.1963 11.168 39.3727 12.3074 37.0666 14.5818C34.7514 16.8652 33.5938 19.6752 33.5938 23.0073C33.5938 26.3394 34.765 29.0949 37.112 31.4011C39.4453 33.6845 42.2644 34.8285 45.5647 34.8285C49.5641 34.8285 52.701 33.285 54.9799 30.1935C54.989 30.1844 54.9935 30.1708 55.0026 30.1618C55.1206 29.9847 55.1887 29.7759 55.1887 29.5489C55.1887 28.9315 54.6894 28.4322 54.072 28.4322" fill="#606161"/>
<path d="M98.1081 18.799C98.1081 15.653 96.7008 13.4014 93.8907 12.0485C93.1417 11.6945 92.1839 11.4448 91.0172 11.2995C90.5587 11.2496 90.0548 11.2042 89.5009 11.1724C89.0742 11.1497 88.593 11.1406 88.0619 11.1406H83.2317C82.578 11.1406 82.0469 11.6718 82.0469 12.3255V33.639C82.0469 34.2972 82.578 34.8284 83.2363 34.8284C83.8945 34.8284 84.3939 34.3245 84.4211 33.6889C84.4211 33.6708 84.4211 33.6572 84.4211 33.639C84.4211 33.6208 84.4211 33.6072 84.4211 33.5891V13.2969H88.5476C89.5282 13.2969 90.3181 13.3423 90.9218 13.4377C91.7344 13.5739 92.4789 13.8235 93.1553 14.1867C94.8849 15.1219 95.7475 16.6381 95.7475 18.7354C95.7475 21.2867 94.4446 22.9618 91.8388 23.7517C91.2941 23.9287 90.5632 24.0377 89.6553 24.0831C89.6553 24.0831 89.6507 24.0831 89.6462 24.0831C89.6235 24.0831 89.6008 24.0831 89.5736 24.0831C88.7928 24.1194 88.1708 24.764 88.1708 25.5539C88.1708 25.8081 88.2344 26.0487 88.3479 26.2576C88.416 26.3847 88.5022 26.4982 88.6021 26.598L94.3765 34.3018L94.4491 34.4017C94.667 34.6649 95.003 34.8329 95.3707 34.8329C96.0334 34.8329 96.5691 34.2972 96.5691 33.6345C96.5691 33.4393 96.5237 33.2577 96.442 33.0988C96.3785 32.9671 96.2877 32.8491 96.1787 32.7538L91.0671 26.0079C93.0782 25.8717 94.7442 25.1454 96.0698 23.8198C97.4226 22.467 98.1035 20.7919 98.1035 18.8035" fill="#606161"/>
<path d="M77.4342 33.0488L68.6546 12.6069C68.6092 12.4526 68.5456 12.3028 68.4639 12.1666C68.1098 11.5537 67.4561 11.1406 66.698 11.1406C65.9399 11.1406 65.2816 11.5492 64.9321 12.162L64.7414 12.6069L55.9572 33.1896L55.9164 33.2894C55.871 33.412 55.8438 33.5437 55.8438 33.6844C55.8438 34.3154 56.3522 34.8238 56.9832 34.8284C56.9832 34.8284 56.9832 34.8284 56.9877 34.8284C56.9877 34.8284 56.9877 34.8284 56.9923 34.8284C57.4372 34.8284 57.8185 34.5696 58.0046 34.1928L58.0545 34.0748L60.9781 27.3244L62.0721 24.7186L65.9399 15.6575L65.9535 15.6258C66.0806 15.3398 66.3757 15.14 66.7116 15.14C67.0112 15.14 67.2745 15.2989 67.4198 15.5304L67.5287 15.7847L71.0878 24.3055L72.3816 27.3244L75.3006 34.0884L75.3142 34.1202C75.4958 34.5333 75.9089 34.8238 76.3901 34.8284C76.3901 34.8284 76.3992 34.8284 76.4037 34.8284C76.4082 34.8284 76.4128 34.8284 76.4173 34.8284C77.0665 34.8238 77.5931 34.2927 77.5931 33.639C77.5931 33.521 77.5749 33.4075 77.5431 33.3031C77.5159 33.2123 77.4796 33.1306 77.4342 33.0488Z" fill="#606161"/>
<path d="M45.1725 42.6361C45.1226 42.6498 45.0726 42.6634 45.0272 42.6725C43.5019 43.0402 41.9085 43.2399 40.2697 43.2399C40.0609 43.2399 39.8566 43.2399 39.6523 43.2308C28.7618 42.904 20.0321 33.9745 20.0321 23.0023V22.9342C20.0638 13.9548 25.9426 6.35093 34.064 3.73611C36.0206 3.1051 38.1043 2.76463 40.2742 2.76463C41.9176 2.76463 43.5201 2.96437 45.0499 3.33662C45.0545 3.33662 45.059 3.33662 45.0635 3.33662C45.0999 3.35024 45.1362 3.35932 45.177 3.35932C45.3541 3.35932 45.4993 3.21405 45.4993 3.03701C45.4993 2.95075 45.463 2.86904 45.4086 2.81003C45.3632 2.78279 45.3178 2.76009 45.2724 2.73285C42.0311 0.989638 38.3267 0 34.3863 0C33.8734 0 33.3604 0.0181585 32.8565 0.0499359C21.3486 0.808053 12.1604 10.0099 11.4249 21.5087C11.3932 22.0036 11.375 22.4984 11.375 23.0023C11.375 34.6055 19.964 44.1978 31.1314 45.773C32.1892 45.9228 33.2741 46 34.3727 46C38.3177 46 42.0311 45.0058 45.2724 43.2581C45.2996 43.2444 45.3223 43.2308 45.3495 43.2127C45.4313 43.1537 45.4857 43.0629 45.4857 42.9585C45.4857 42.7814 45.345 42.6407 45.1679 42.6407" fill="#0A804F"/>
<path d="M7.93626 10.0678C8.32667 10.0678 8.70346 10.0224 9.06663 9.93618C11.1912 9.42775 12.771 7.51657 12.771 5.23314C12.771 4.9653 12.7483 4.70654 12.7074 4.45232C12.3352 2.15527 10.3377 0.398438 7.93626 0.398438C6.23844 0.398438 4.74491 1.27458 3.88238 2.59562C3.38756 3.35373 3.10156 4.25712 3.10156 5.2286C3.10156 7.89789 5.26696 10.0633 7.93626 10.0633" fill="#0A804F"/>
<path d="M14.1999 41.8188C14.1999 41.8188 14.1909 41.8097 14.1909 41.8051C9.59222 36.8751 6.77766 30.2609 6.77766 22.9839C6.77766 21.4767 6.90023 19.9923 7.13175 18.5487C7.23616 17.9086 7.36327 17.273 7.50854 16.6511C7.59933 16.2607 7.6992 15.8703 7.80815 15.489C7.81723 15.3709 7.82631 15.2529 7.82631 15.1349C7.82631 14.926 7.80815 14.7172 7.77637 14.5175C7.60387 13.4507 6.98648 12.5382 6.12849 11.9617C5.85611 11.7801 5.56104 11.6303 5.24326 11.5213C4.85286 11.3897 4.43975 11.3125 4.00395 11.3125C2.66022 11.3125 1.47992 12.0025 0.798974 13.0512C0.59923 13.3553 0.444883 13.6867 0.340472 14.0408C0.281457 14.4267 0.231521 14.8171 0.186125 15.2075C0.0680943 16.2516 0 17.3093 0 18.3852C0 28.5812 5.52926 37.4789 13.7505 42.2591C13.7959 42.2863 13.8368 42.309 13.8822 42.3363C13.9139 42.3454 13.9457 42.3544 13.982 42.3544C14.0184 42.3544 14.0547 42.3454 14.0864 42.3317C14.1137 42.3181 14.1364 42.3045 14.1636 42.2863C14.2453 42.2273 14.2998 42.1365 14.2998 42.0321C14.2998 41.9459 14.268 41.8732 14.2136 41.8142" fill="#0A804F"/>
<path d="M114.761 32.6908H105.096V23.9566H114.239C114.239 23.9566 114.248 23.9566 114.257 23.9566C114.266 23.9566 114.266 23.9566 114.275 23.9566C114.847 23.9475 115.31 23.4936 115.338 22.9261C115.338 22.908 115.342 22.8898 115.342 22.8716C115.342 22.8535 115.338 22.8353 115.338 22.8172C115.31 22.2724 114.884 21.8366 114.339 21.7958H105.101V13.293H114.534C114.534 13.293 114.575 13.2976 114.598 13.2976C114.62 13.2976 114.639 13.293 114.661 13.293C115.229 13.2613 115.678 12.7937 115.678 12.2171C115.678 11.6406 115.192 11.1367 114.598 11.1367H103.911C103.258 11.1367 102.727 11.6679 102.727 12.3216V33.6396C102.727 34.2933 103.258 34.8245 103.911 34.8245H114.602C115.197 34.8245 115.683 34.3433 115.683 33.744C115.683 33.2038 115.283 32.7589 114.766 32.6818" fill="#606161"/>
</svg>
