<svg width="13" height="17" viewBox="0 0 13 17" fill="none" xmlns="http://www.w3.org/2000/svg">
<path fill-rule="evenodd" clip-rule="evenodd" d="M1.48375 10.5186C0.72375 9.07859 0.34375 7.75193 0.34375 6.53859C0.34375 5.36526 0.630417 4.27193 1.20375 3.25859C1.75042 2.28526 2.49708 1.51193 3.44375 0.938594C4.40375 0.351927 5.45042 0.0585938 6.58375 0.0585938C7.71708 0.0585938 8.77042 0.351927 9.74375 0.938594C10.6904 1.51193 11.4371 2.28526 11.9838 3.25859C12.5571 4.27193 12.8438 5.36526 12.8438 6.53859C12.8438 7.75193 12.4571 9.07859 11.6838 10.5186C11.0971 11.6519 10.2904 12.8119 9.26375 13.9986C8.57042 14.8119 7.85042 15.5653 7.10375 16.2586C6.95708 16.3919 6.78375 16.4586 6.58375 16.4586C6.38375 16.4586 6.21042 16.3919 6.06375 16.2586C5.31708 15.5519 4.60375 14.7986 3.92375 13.9986C2.89708 12.8119 2.08375 11.6519 1.48375 10.5186ZM6.60375 7.39858C8.03969 7.39858 9.20375 6.23452 9.20375 4.79858C9.20375 3.36264 8.03969 2.19858 6.60375 2.19858C5.16781 2.19858 4.00375 3.36264 4.00375 4.79858C4.00375 6.23452 5.16781 7.39858 6.60375 7.39858Z" fill="#181826"/>
</svg>
