<svg width="58" height="53" viewBox="0 0 58 53" fill="none" xmlns="http://www.w3.org/2000/svg">
<g clip-path="url(#clip0_1505_65478)">
<path d="M26 4C26 3.44772 26.4477 3 27 3H41L48 10V28C48 28.5523 47.5523 29 47 29H27C26.4477 29 26 28.5523 26 28V4Z" fill="#BA2417"/>
<rect x="26" y="22" width="11" height="7" fill="#BA2417"/>
<rect x="37" y="22" width="11" height="7" fill="#BA2417"/>
</g>
<path d="M48 10H42C41.4477 10 41 9.55228 41 9V3L44.5 6.5L48 10Z" fill="white" fill-opacity="0.6"/>
<g filter="url(#filter0_ddd_1505_65478)">
<rect x="20" y="13" width="18" height="10" rx="1" fill="#EC5649"/>
</g>
<path d="M26.2206 17.32C26.2206 16.448 25.6446 15.688 24.3806 15.688H21.7566V21H22.8046V18.96H24.3806C25.6446 18.96 26.2206 18.208 26.2206 17.32ZM22.8046 16.624H24.3086C24.8526 16.624 25.1726 16.896 25.1726 17.32C25.1726 17.744 24.8526 18.024 24.3086 18.024H22.8046V16.624ZM27.1238 15.688V21H28.9638C30.8118 21 31.8598 19.792 31.8598 18.344C31.8598 16.896 30.8118 15.688 28.9638 15.688H27.1238ZM28.1718 20.064V16.624H28.9318C30.0838 16.624 30.8118 17.344 30.8118 18.344C30.8118 19.344 30.0838 20.064 28.9318 20.064H28.1718ZM36.5315 16.624V15.688H32.8035V21H33.8515V18.808H36.4755V17.872H33.8515V16.624H36.5315Z" fill="white"/>
<defs>
<filter id="filter0_ddd_1505_65478" x="0" y="3" width="58" height="50" filterUnits="userSpaceOnUse" color-interpolation-filters="sRGB">
<feFlood flood-opacity="0" result="BackgroundImageFix"/>
<feColorMatrix in="SourceAlpha" type="matrix" values="0 0 0 0 0 0 0 0 0 0 0 0 0 0 0 0 0 0 127 0" result="hardAlpha"/>
<feOffset/>
<feGaussianBlur stdDeviation="0.5"/>
<feColorMatrix type="matrix" values="0 0 0 0 0 0 0 0 0 0 0 0 0 0 0 0 0 0 0.04 0"/>
<feBlend mode="normal" in2="BackgroundImageFix" result="effect1_dropShadow_1505_65478"/>
<feColorMatrix in="SourceAlpha" type="matrix" values="0 0 0 0 0 0 0 0 0 0 0 0 0 0 0 0 0 0 127 0" result="hardAlpha"/>
<feOffset dy="2"/>
<feGaussianBlur stdDeviation="3"/>
<feColorMatrix type="matrix" values="0 0 0 0 0 0 0 0 0 0 0 0 0 0 0 0 0 0 0.04 0"/>
<feBlend mode="normal" in2="effect1_dropShadow_1505_65478" result="effect2_dropShadow_1505_65478"/>
<feColorMatrix in="SourceAlpha" type="matrix" values="0 0 0 0 0 0 0 0 0 0 0 0 0 0 0 0 0 0 127 0" result="hardAlpha"/>
<feOffset dy="10"/>
<feGaussianBlur stdDeviation="10"/>
<feColorMatrix type="matrix" values="0 0 0 0 0 0 0 0 0 0 0 0 0 0 0 0 0 0 0.04 0"/>
<feBlend mode="normal" in2="effect2_dropShadow_1505_65478" result="effect3_dropShadow_1505_65478"/>
<feBlend mode="normal" in="SourceGraphic" in2="effect3_dropShadow_1505_65478" result="shape"/>
</filter>
<clipPath id="clip0_1505_65478">
<rect x="26" y="3" width="22" height="26" rx="1" fill="white"/>
</clipPath>
</defs>
</svg>
