<svg width="48" height="48" viewBox="0 0 48 48" fill="none" xmlns="http://www.w3.org/2000/svg">
<rect width="48" height="48" fill="#6AC9C8"/>
<mask id="mask0_1122_32302" style="mask-type:alpha" maskUnits="userSpaceOnUse" x="12" y="12" width="24" height="24">
<rect x="12" y="12" width="24" height="24" fill="#D9D9D9"/>
</mask>
<g mask="url(#mask0_1122_32302)">
<path d="M31 23.9502C31 22.0002 30.3207 20.3459 28.962 18.9872C27.604 17.6292 25.95 16.9502 24 16.9502V14.9502C25.25 14.9502 26.421 15.1875 27.513 15.6622C28.6043 16.1375 29.5543 16.7795 30.363 17.5882C31.171 18.3962 31.8127 19.3462 32.288 20.4382C32.7627 21.5295 33 22.7002 33 23.9502H31ZM27 23.9502C27 23.1169 26.7083 22.4085 26.125 21.8252C25.5417 21.2419 24.8333 20.9502 24 20.9502V18.9502C25.3833 18.9502 26.5627 19.4375 27.538 20.4122C28.5127 21.3875 29 22.5669 29 23.9502H27ZM31.95 33.0002C29.8 33.0002 27.7043 32.5209 25.663 31.5622C23.621 30.6042 21.8127 29.3375 20.238 27.7622C18.6627 26.1875 17.396 24.3792 16.438 22.3372C15.4793 20.2959 15 18.2002 15 16.0502C15 15.7502 15.1 15.5002 15.3 15.3002C15.5 15.1002 15.75 15.0002 16.05 15.0002H20.1C20.3333 15.0002 20.5417 15.0752 20.725 15.2252C20.9083 15.3752 21.0167 15.5669 21.05 15.8002L21.7 19.3002C21.7333 19.5335 21.7293 19.7459 21.688 19.9372C21.646 20.1292 21.55 20.3002 21.4 20.4502L19 22.9002C19.7 24.1002 20.575 25.2252 21.625 26.2752C22.675 27.3252 23.8333 28.2335 25.1 29.0002L27.45 26.6502C27.6 26.5002 27.796 26.3875 28.038 26.3122C28.2793 26.2375 28.5167 26.2169 28.75 26.2502L32.2 26.9502C32.4333 27.0002 32.625 27.1125 32.775 27.2872C32.925 27.4625 33 27.6669 33 27.9002V31.9502C33 32.2502 32.9 32.5002 32.7 32.7002C32.5 32.9002 32.25 33.0002 31.95 33.0002Z" fill="white"/>
</g>
</svg>
