<svg width="20" height="21" viewBox="0 0 20 21" fill="none" xmlns="http://www.w3.org/2000/svg">
<path d="M10.8194 2.89844C10.6461 2.89844 10.4994 2.95844 10.3794 3.07844C10.2594 3.19844 10.1994 3.3451 10.1994 3.51844C10.1994 3.69177 10.2594 3.83844 10.3794 3.95844C10.4994 4.07844 10.6461 4.13844 10.8194 4.13844C11.6061 4.13844 12.3727 4.29177 13.1194 4.59844C13.8661 4.9051 14.5261 5.3451 15.0994 5.91844C15.6727 6.49177 16.1127 7.15177 16.4194 7.89844C16.7261 8.6451 16.8794 9.41177 16.8794 10.1984C16.8794 10.3718 16.9394 10.5218 17.0594 10.6484C17.1794 10.7751 17.3261 10.8384 17.4994 10.8384C17.6727 10.8384 17.8194 10.7751 17.9394 10.6484C18.0594 10.5218 18.1194 10.3718 18.1194 10.1984C18.1194 9.25177 17.9461 8.33844 17.5994 7.45844C17.2261 6.55177 16.6927 5.7451 15.9994 5.03844H15.9794C15.2861 4.3451 14.4794 3.81177 13.5594 3.43844C12.6794 3.07844 11.7661 2.89844 10.8194 2.89844ZM15.7794 14.8784L14.7994 13.8984C14.5594 13.6584 14.2661 13.5384 13.9194 13.5384C13.5727 13.5384 13.2794 13.6584 13.0394 13.8984L12.2794 14.6584C12.1861 14.7518 12.0794 14.8118 11.9594 14.8384C11.8394 14.8651 11.7261 14.8518 11.6194 14.7984C10.4327 14.2651 9.37273 13.5318 8.43939 12.5984C7.47939 11.6384 6.74606 10.5784 6.23939 9.41844C6.18606 9.29844 6.17273 9.17844 6.19939 9.05844C6.22606 8.93844 6.27939 8.83177 6.35939 8.73844L7.05939 8.05844C7.33939 7.77844 7.48273 7.46177 7.48939 7.10844C7.49606 6.7551 7.37273 6.45844 7.11939 6.21844L6.15939 5.23844C5.82606 4.91844 5.42939 4.75844 4.96939 4.75844C4.50939 4.75844 4.11939 4.91844 3.79939 5.23844L3.25939 5.77844C2.95273 6.0851 2.73606 6.45177 2.60939 6.87844C2.48273 7.3051 2.46606 7.73844 2.55939 8.17844C2.75939 9.2851 3.17273 10.3984 3.79939 11.5184C4.43939 12.6784 5.25939 13.7584 6.25939 14.7584C7.25939 15.7584 8.33939 16.5784 9.49939 17.2184C10.6194 17.8451 11.7394 18.2651 12.8594 18.4784C13.2994 18.5584 13.7294 18.5351 14.1494 18.4084C14.5694 18.2818 14.9327 18.0651 15.2394 17.7584L15.7794 17.2184C16.0994 16.8984 16.2594 16.5084 16.2594 16.0484C16.2594 15.5884 16.0994 15.1984 15.7794 14.8784ZM12.7394 8.25844V8.27844C13.0061 8.53177 13.2061 8.8251 13.3394 9.15844C13.4727 9.49177 13.5327 9.83844 13.5194 10.1984C13.5194 10.3718 13.5794 10.5184 13.6994 10.6384C13.8194 10.7584 13.9661 10.8218 14.1394 10.8284C14.3127 10.8351 14.4627 10.7784 14.5894 10.6584C14.7161 10.5384 14.7794 10.3918 14.7794 10.2184C14.7927 9.69844 14.7027 9.1951 14.5094 8.70844C14.3161 8.22177 14.0261 7.7851 13.6394 7.39844C13.2527 7.01177 12.8127 6.72177 12.3194 6.52844C11.8261 6.3351 11.3194 6.23844 10.7994 6.23844C10.6261 6.25177 10.4794 6.31844 10.3594 6.43844C10.2394 6.55844 10.1827 6.7051 10.1894 6.87844C10.1961 7.05177 10.2594 7.19844 10.3794 7.31844C10.4994 7.43844 10.6461 7.49844 10.8194 7.49844C11.1794 7.4851 11.5261 7.5451 11.8594 7.67844C12.1927 7.81177 12.4861 8.0051 12.7394 8.25844Z" fill="#333333"/>
</svg>
