<svg width="24" height="24" viewBox="0 0 24 24" fill="none" xmlns="http://www.w3.org/2000/svg">
<path fill-rule="evenodd" clip-rule="evenodd" d="M21.017 12C21.0126 12.4089 20.9825 12.8172 20.9268 13.2223C22.5418 15.4157 22.312 18.46 20.386 20.386C18.46 22.312 15.4157 22.5418 13.2223 20.9268C12.8172 20.9825 12.4089 21.0126 12 21.017C7.02004 21.017 2.98299 16.98 2.98299 12C2.98738 11.5911 3.01749 11.1828 3.07316 10.7777C1.45815 8.58432 1.688 5.54005 3.61402 3.61402C5.54005 1.688 8.58432 1.45815 10.7777 3.07316C11.1828 3.01749 11.5911 2.98738 12 2.98299C16.98 2.98299 21.017 7.02004 21.017 12ZM14.675 17.5505C15.3694 17.288 15.9718 16.8283 16.4083 16.228V16.2079C16.8066 15.6424 17.0169 14.9659 17.0095 14.2743C17.0498 13.7412 16.9533 13.2066 16.7289 12.7214C16.4796 12.3123 16.1361 11.9688 15.727 11.7195C15.2717 11.4312 14.7797 11.2054 14.2643 11.0482C13.6459 10.8474 13.0171 10.6802 12.3807 10.5473L11.1985 10.2567C10.9604 10.1875 10.729 10.097 10.5072 9.9862C10.3107 9.89436 10.1363 9.76106 9.99622 9.59546C9.86223 9.44368 9.79064 9.24682 9.79584 9.04442C9.81804 8.6969 10.0191 8.38583 10.3268 8.22287C10.7734 7.95496 11.2895 7.82592 11.8096 7.85217C12.3068 7.81017 12.8046 7.92585 13.2323 8.1828C13.5597 8.4563 13.823 8.79831 14.0038 9.18469C14.1316 9.4526 14.3044 9.69659 14.5147 9.90605C14.7168 10.0804 14.98 10.167 15.2461 10.1465C15.9146 10.1361 16.4571 9.60248 16.4784 8.93422C16.4778 8.58229 16.3845 8.23674 16.2079 7.93233C16.0036 7.56094 15.7196 7.23934 15.3764 6.99055C14.9689 6.66259 14.5032 6.41446 14.0038 6.25917C13.3538 6.06618 12.6779 5.97493 12 5.98866C11.1377 5.96634 10.2786 6.10217 9.46522 6.38941C8.81659 6.60012 8.24028 6.98895 7.80208 7.51153C7.42083 8.01616 7.21659 8.6324 7.22098 9.26484C7.20363 9.88985 7.40172 10.5018 7.78204 10.9981C8.17852 11.4948 8.69603 11.8812 9.28488 12.1202C10.009 12.4199 10.7606 12.6481 11.5291 12.8015C12.177 12.9418 12.698 13.072 13.0921 13.1922C13.4304 13.2921 13.742 13.4667 14.0038 13.7032C14.2115 13.9242 14.3169 14.2223 14.2943 14.5248C14.2909 14.9693 14.0502 15.3781 13.6631 15.5968C13.1486 15.9213 12.5477 16.082 11.9399 16.0577C11.5139 16.0732 11.0896 15.9946 10.6975 15.8272C10.4156 15.7053 10.1704 15.5119 9.9862 15.2662C9.78598 14.9978 9.62099 14.7049 9.49527 14.3945C9.38631 14.1128 9.21506 13.8593 8.99433 13.6531C8.78599 13.473 8.51824 13.3766 8.24291 13.3826C7.91161 13.3694 7.58937 13.4925 7.35123 13.7233C7.11934 13.9289 6.98781 14.2249 6.99055 14.5348C7.02192 15.1059 7.23223 15.6528 7.59168 16.0977C7.94782 16.6279 8.42971 17.0616 8.99433 17.3601C9.92908 17.8163 10.9603 18.0397 12 18.0113C12.9136 18.0395 13.8235 17.8828 14.675 17.5505Z" fill="#1A1B1E" fill-opacity="0.5"/>
</svg>
