<svg width="20" height="21" viewBox="0 0 20 21" fill="none" xmlns="http://www.w3.org/2000/svg">
<path d="M2.91625 10.3986C2.91625 9.11859 3.23625 7.92526 3.87625 6.81859C4.50292 5.75193 5.34958 4.90526 6.41625 4.27859C7.52292 3.63859 8.71625 3.31859 9.99625 3.31859C11.2762 3.31859 12.4696 3.63859 13.5763 4.27859C14.6429 4.90526 15.4896 5.75193 16.1163 6.81859C16.7562 7.92526 17.0763 9.11859 17.0763 10.3986C17.0763 11.3586 16.8896 12.2786 16.5162 13.1586C16.1562 14.0119 15.6429 14.7719 14.9762 15.4386C14.7096 14.8519 14.2496 14.3653 13.5962 13.9786C13.1163 13.6719 12.5662 13.4353 11.9462 13.2686C11.3263 13.1019 10.6762 13.0186 9.99625 13.0186C9.31625 13.0186 8.66625 13.1019 8.04625 13.2686C7.42625 13.4353 6.87625 13.6719 6.39625 13.9786C5.74292 14.3653 5.28292 14.8519 5.01625 15.4386C4.34958 14.7719 3.83625 14.0119 3.47625 13.1586C3.10292 12.2786 2.91625 11.3586 2.91625 10.3986ZM9.99625 2.05859C8.48958 2.05859 7.08958 2.43859 5.79625 3.19859C4.52958 3.93193 3.52958 4.93193 2.79625 6.19859C2.03625 7.49193 1.65625 8.89193 1.65625 10.3986C1.65625 11.9053 2.03625 13.3053 2.79625 14.5986C3.52958 15.8653 4.52958 16.8653 5.79625 17.5986C7.08958 18.3586 8.48958 18.7386 9.99625 18.7386C11.5029 18.7386 12.9029 18.3586 14.1962 17.5986C15.4629 16.8653 16.4629 15.8653 17.1962 14.5986C17.9562 13.3053 18.3363 11.9053 18.3363 10.3986C18.3363 8.89193 17.9562 7.49193 17.1962 6.19859C16.4629 4.93193 15.4629 3.93193 14.1962 3.19859C12.9029 2.43859 11.5029 2.05859 9.99625 2.05859ZM10.0162 12.0986C10.5229 12.0986 10.9796 11.9786 11.3862 11.7386C11.7929 11.4986 12.1129 11.1686 12.3462 10.7486C12.5796 10.3286 12.6962 9.85193 12.6962 9.31859C12.6962 8.78526 12.5796 8.30859 12.3462 7.88859C12.1129 7.46859 11.7929 7.13859 11.3862 6.89859C10.9796 6.65859 10.5229 6.53859 10.0162 6.53859C9.50958 6.53859 9.04958 6.65859 8.63625 6.89859C8.22292 7.13859 7.89625 7.46859 7.65625 7.88859C7.41625 8.30859 7.29625 8.78526 7.29625 9.31859C7.29625 9.85193 7.41625 10.3286 7.65625 10.7486C7.89625 11.1686 8.22292 11.4986 8.63625 11.7386C9.04958 11.9786 9.50958 12.0986 10.0162 12.0986Z" fill="#333333"/>
</svg>
