<?xml version="1.0" encoding="UTF-8"?>
<svg xmlns="http://www.w3.org/2000/svg" width="100" height="100" viewBox="0 0 100 100" fill="none">
  <path d="M95.0718 54.9291C97.7936 30.0367 79.8207 7.65092 54.9282 4.92915C30.0357 2.20738 7.64998 20.1803 4.9282 45.0727C2.20643 69.9652 20.1793 92.351 45.0718 95.0727C69.9643 97.7945 92.35 79.8216 95.0718 54.9291Z" fill="#087F4F"></path>
  <path d="M69.0449 74.4877H30.8984V32.5117H69.0449V74.4877Z" fill="white"></path>
  <path d="M70.5767 33.588H29.3594V27.4102H70.5767V33.588Z" fill="#373737"></path>
  <path d="M63.2345 55.9156H36.7031V54.0234H63.2345V55.9156Z" fill="#373737"></path>
  <path d="M63.2345 70.4195H36.7031V68.5273H63.2345V70.4195Z" fill="#373737"></path>
  <path d="M49.9666 51.4097C54.224 51.4097 57.6754 47.9584 57.6754 43.701C57.6754 39.4435 54.224 35.9922 49.9666 35.9922C45.7091 35.9922 42.2578 39.4435 42.2578 43.701C42.2578 47.9584 45.7091 51.4097 49.9666 51.4097Z" fill="#373737"></path>
  <path d="M51.3401 38.5117H48.5989C48.2423 38.5117 47.9531 38.8008 47.9531 39.1575V48.2391C47.9531 48.5958 48.2423 48.8849 48.5989 48.8849H51.3401C51.6968 48.8849 51.9859 48.5958 51.9859 48.2391V39.1575C51.9859 38.8008 51.6968 38.5117 51.3401 38.5117Z" fill="#087F4F"></path>
  <path d="M54.5087 41.6836H45.427C45.0704 41.6836 44.7812 41.9727 44.7812 42.3294V45.0706C44.7812 45.4272 45.0704 45.7164 45.427 45.7164H54.5087C54.8653 45.7164 55.1544 45.4272 55.1544 45.0706V42.3294C55.1544 41.9727 54.8653 41.6836 54.5087 41.6836Z" fill="#087F4F"></path>
  <path d="M62.2442 54.9648H37.6953V69.4702H62.2442V54.9648Z" fill="#373737"></path>
  <path d="M49.1578 56.6406H39.3672V67.7996H49.1578V56.6406Z" fill="white"></path>
  <path d="M60.5719 56.6406H50.7812V67.7996H60.5719V56.6406Z" fill="white"></path>
</svg>
