<?xml version="1.0" encoding="UTF-8"?>
<svg xmlns="http://www.w3.org/2000/svg" width="101" height="100" viewBox="0 0 101 100" fill="none">
  <path d="M95.7359 54.9291C98.4576 30.0367 80.4847 7.65092 55.5923 4.92915C30.6998 2.20738 8.31404 20.1803 5.59227 45.0727C2.87049 69.9652 20.8434 92.351 45.7359 95.0727C70.6283 97.7945 93.0141 79.8216 95.7359 54.9291Z" fill="#5EAB42"></path>
  <path d="M59.4554 29.2266H41.8386C40.5831 29.2266 39.5625 30.2923 39.5625 31.602V37.5179H42.9901V33.7471C42.9901 33.2187 43.3875 32.7852 43.8753 32.7852H57.4277C57.9154 32.7852 58.3128 33.2142 58.3128 33.7471V37.5179H61.7405V31.602C61.7405 30.2923 60.7199 29.2266 59.4644 29.2266H59.4554Z" fill="#373737"></path>
  <path d="M71.4887 37.1523H29.8153C28.7653 37.1523 27.9141 38.0035 27.9141 39.0536V68.8229C27.9141 69.8729 28.7653 70.7241 29.8153 70.7241H71.4887C72.5387 70.7241 73.39 69.8729 73.39 68.8229V39.0536C73.39 38.0035 72.5387 37.1523 71.4887 37.1523Z" fill="white"></path>
  <path d="M59.9862 63.2714C65.1412 58.1164 65.1412 49.7585 59.9862 44.6035C54.8312 39.4485 46.4733 39.4485 41.3183 44.6035C36.1633 49.7585 36.1633 58.1164 41.3183 63.2714C46.4733 68.4264 54.8312 68.4264 59.9862 63.2714Z" fill="#373737"></path>
  <path d="M52.9848 45.0664H48.3062C47.6927 45.0664 47.1953 45.5638 47.1953 46.1773V61.7078C47.1953 62.3214 47.6927 62.8187 48.3062 62.8187H52.9848C53.5983 62.8187 54.0957 62.3214 54.0957 61.7078V46.1773C54.0957 45.5638 53.5983 45.0664 52.9848 45.0664Z" fill="white"></path>
  <path d="M58.4148 50.4883H42.8844C42.2708 50.4883 41.7734 50.9857 41.7734 51.5992V56.2778C41.7734 56.8913 42.2708 57.3887 42.8844 57.3887H58.4148C59.0284 57.3887 59.5257 56.8913 59.5257 56.2778V51.5992C59.5257 50.9857 59.0284 50.4883 58.4148 50.4883Z" fill="white"></path>
</svg>
