<?xml version="1.0" encoding="UTF-8"?>
<svg xmlns="http://www.w3.org/2000/svg" width="101" height="100" viewBox="0 0 101 100" fill="none">
  <path d="M95.5878 54.7484C98.2101 29.7565 80.076 7.37077 55.0841 4.74842C30.0922 2.12608 7.70646 20.2602 5.08411 45.2521C2.46177 70.244 20.5959 92.6297 45.5878 95.2521C70.5797 97.8744 92.9654 79.7403 95.5878 54.7484Z" fill="#A4CE4E"></path>
  <path d="M32.9926 28.8938C33.8401 28.8938 34.5334 29.5826 34.5334 30.4346C34.5334 31.2866 33.8446 31.9755 32.9926 31.9755C32.1406 31.9755 31.4518 31.2866 31.4518 30.4346C31.4518 29.5826 32.1406 28.8938 32.9926 28.8938ZM32.9926 27.4844C31.3657 27.4844 30.0469 28.8032 30.0469 30.4301C30.0469 32.0571 31.3657 33.3758 32.9926 33.3758C34.6196 33.3758 35.9383 32.0571 35.9383 30.4301C35.9383 28.8032 34.6196 27.4844 32.9926 27.4844Z" fill="#373737"></path>
  <path d="M61.4535 28.8938C62.301 28.8938 62.9944 29.5826 62.9944 30.4346C62.9944 31.2866 62.3055 31.9755 61.4535 31.9755C60.6015 31.9755 59.9127 31.2866 59.9127 30.4346C59.9127 29.5826 60.6015 28.8938 61.4535 28.8938ZM61.4535 27.4844C59.8266 27.4844 58.5078 28.8032 58.5078 30.4301C58.5078 32.0571 59.8266 33.3758 61.4535 33.3758C63.0805 33.3758 64.3993 32.0571 64.3993 30.4301C64.3993 28.8032 63.0805 27.4844 61.4535 27.4844Z" fill="#373737"></path>
  <path d="M65.7965 64.2688C67.6863 64.2688 69.2226 65.8051 69.2226 67.6949C69.2226 69.5847 67.6863 71.121 65.7965 71.121C63.9067 71.121 62.3704 69.5847 62.3704 67.6949C62.3704 65.8051 63.9067 64.2688 65.7965 64.2688ZM65.7965 62.8594C63.1272 62.8594 60.9609 65.0256 60.9609 67.6949C60.9609 70.3642 63.1272 72.5305 65.7965 72.5305C68.4658 72.5305 70.632 70.3642 70.632 67.6949C70.632 65.0256 68.4658 62.8594 65.7965 62.8594Z" fill="#373737"></path>
  <path d="M52.1908 69.6103C51.1666 69.6103 50.1016 69.1481 49.1862 68.287C47.1604 66.3791 46.7435 64.0315 46.603 61.9877C46.4081 59.1734 46.4444 54.4557 46.5305 52.0039L47.9354 52.0538C47.8493 54.4738 47.813 59.128 48.0034 61.888C48.1801 64.4349 48.801 65.9939 50.1469 67.2628C50.9219 67.9924 51.8373 68.3278 52.6032 68.1601C53.5912 67.938 54.2846 66.8776 54.774 65.9758C55.2408 65.1238 55.6487 64.3533 56.0158 63.6599C58.0415 59.8441 58.9705 58.1038 61.4132 58.1038C64.2955 58.1038 65.9678 61.888 66.0222 63.1977L64.6173 63.2566C64.5856 62.4817 63.3166 59.5133 61.4132 59.5133C59.8815 59.5133 59.2878 60.5103 57.262 64.3216C56.8904 65.0195 56.4825 65.7945 56.0112 66.651C55.3768 67.8112 54.4522 69.1889 52.9114 69.5333C52.6757 69.5877 52.431 69.6103 52.1863 69.6103H52.1908Z" fill="#373737"></path>
  <path d="M47.2245 52.7322C33.5472 52.7322 32.3372 32.2842 32.3281 32.0803L33.733 32.0078C33.7421 32.2027 34.8841 51.3273 47.2245 51.3273C59.5648 51.3273 60.7069 32.2027 60.7159 32.0078L62.1208 32.0803C62.1118 32.2888 60.9017 52.7322 47.2245 52.7322Z" fill="#373737"></path>
  <path d="M65.7955 71.1965C67.7277 71.1965 69.2941 69.6301 69.2941 67.6979C69.2941 65.7656 67.7277 64.1992 65.7955 64.1992C63.8632 64.1992 62.2969 65.7656 62.2969 67.6979C62.2969 69.6301 63.8632 71.1965 65.7955 71.1965Z" fill="white"></path>
  <path d="M61.4534 32.0161C62.3294 32.0161 63.0395 31.3059 63.0395 30.4299C63.0395 29.5539 62.3294 28.8438 61.4534 28.8438C60.5773 28.8438 59.8672 29.5539 59.8672 30.4299C59.8672 31.3059 60.5773 32.0161 61.4534 32.0161Z" fill="white"></path>
  <path d="M32.9924 32.0161C33.8684 32.0161 34.5786 31.3059 34.5786 30.4299C34.5786 29.5539 33.8684 28.8438 32.9924 28.8438C32.1164 28.8438 31.4062 29.5539 31.4062 30.4299C31.4062 31.3059 32.1164 32.0161 32.9924 32.0161Z" fill="white"></path>
</svg>
