<?xml version="1.0" encoding="UTF-8"?>
<svg xmlns="http://www.w3.org/2000/svg" width="704" height="113" viewBox="0 0 704 113" fill="none">
  <g clip-path="url(#clip0_1003_5658)">
    <path d="M143.234 28.2222L143.654 27.2422C143.474 27.5522 143.334 27.8822 143.234 28.2222Z" fill="#606161"></path>
    <path d="M119.717 63.073C118.917 63.073 118.217 63.463 117.767 64.053C117.737 64.093 117.707 64.133 117.677 64.173C115.647 66.613 113.377 68.553 110.867 69.983C107.767 71.713 104.447 72.573 100.927 72.573C95.2472 72.573 90.2872 70.423 86.0272 66.123C81.7872 61.843 79.6772 56.863 79.6772 51.193C79.6772 45.523 81.7472 40.403 85.8972 36.123C90.1072 31.773 95.0872 29.603 100.827 29.603C107.887 29.603 113.447 32.283 117.507 37.633C117.567 37.723 117.637 37.803 117.697 37.893C118.147 38.443 118.827 38.803 119.607 38.803C120.977 38.803 122.087 37.693 122.087 36.323C122.087 35.913 121.977 35.523 121.797 35.183C121.597 34.923 121.377 34.663 121.147 34.403C121.037 34.273 120.937 34.153 120.817 34.023C115.517 28.033 108.887 25.043 100.927 25.043C93.5672 25.043 87.3472 27.553 82.2672 32.563C77.1672 37.593 74.6172 43.783 74.6172 51.123C74.6172 58.463 77.1972 64.533 82.3672 69.613C87.5072 74.643 93.7172 77.163 100.987 77.163C109.797 77.163 116.707 73.763 121.727 66.953C121.747 66.933 121.757 66.903 121.777 66.883C122.037 66.493 122.187 66.033 122.187 65.533C122.187 64.173 121.087 63.073 119.727 63.073" fill="#606161"></path>
    <path d="M216.739 41.8544C216.739 34.9244 213.639 29.9644 207.449 26.9844C205.799 26.2044 203.689 25.6544 201.119 25.3344C200.109 25.2244 198.999 25.1244 197.779 25.0544C196.839 25.0044 195.779 24.9844 194.609 24.9844H183.969C182.529 24.9844 181.359 26.1544 181.359 27.5944V74.5444C181.359 75.9944 182.529 77.1644 183.979 77.1644C185.429 77.1644 186.529 76.0544 186.589 74.6544C186.589 74.6144 186.589 74.5844 186.589 74.5444C186.589 74.5044 186.589 74.4744 186.589 74.4344V29.7344H195.679C197.839 29.7344 199.579 29.8344 200.909 30.0444C202.699 30.3444 204.339 30.8944 205.829 31.6944C209.639 33.7544 211.539 37.0944 211.539 41.7144C211.539 47.3344 208.669 51.0244 202.929 52.7644C201.729 53.1544 200.119 53.3944 198.119 53.4944C198.119 53.4944 198.109 53.4944 198.099 53.4944C198.049 53.4944 197.999 53.4944 197.939 53.4944C196.219 53.5744 194.849 54.9944 194.849 56.7344C194.849 57.2944 194.989 57.8244 195.239 58.2844C195.389 58.5644 195.579 58.8144 195.799 59.0344L208.519 76.0044L208.679 76.2244C209.159 76.8044 209.899 77.1744 210.709 77.1744C212.169 77.1744 213.349 75.9944 213.349 74.5344C213.349 74.1044 213.249 73.7044 213.069 73.3544C212.929 73.0644 212.729 72.8044 212.489 72.5944L201.229 57.7344C205.659 57.4344 209.329 55.8344 212.249 52.9144C215.229 49.9344 216.729 46.2444 216.729 41.8644" fill="#606161"></path>
    <path d="M171.193 73.2444L151.853 28.2144C151.753 27.8744 151.613 27.5444 151.433 27.2444C150.653 25.8944 149.213 24.9844 147.543 24.9844C145.873 24.9844 144.423 25.8844 143.653 27.2344L143.233 28.2144L123.883 73.5544L123.793 73.7744C123.693 74.0444 123.633 74.3344 123.633 74.6444C123.633 76.0344 124.753 77.1544 126.143 77.1644C126.143 77.1644 126.143 77.1644 126.153 77.1644C126.153 77.1644 126.153 77.1644 126.163 77.1644C127.143 77.1644 127.983 76.5944 128.393 75.7644L128.503 75.5044L134.943 60.6344L137.353 54.8944L145.873 34.9344L145.903 34.8644C146.183 34.2344 146.833 33.7944 147.573 33.7944C148.233 33.7944 148.813 34.1444 149.133 34.6544L149.373 35.2144L157.213 53.9844L160.063 60.6344L166.493 75.5344L166.523 75.6044C166.923 76.5144 167.833 77.1544 168.893 77.1644C168.893 77.1644 168.913 77.1644 168.923 77.1644C168.933 77.1644 168.943 77.1644 168.953 77.1644C170.383 77.1544 171.543 75.9844 171.543 74.5444C171.543 74.2844 171.503 74.0344 171.433 73.8044C171.373 73.6044 171.293 73.4244 171.193 73.2444Z" fill="#606161"></path>
    <path d="M100.114 94.3614C100.004 94.3914 99.8941 94.4214 99.7941 94.4414C96.4341 95.2514 92.9241 95.6914 89.3141 95.6914C88.8541 95.6914 88.4041 95.6914 87.9541 95.6714C63.9641 94.9514 44.7341 75.2814 44.7341 51.1114V50.9614C44.8041 31.1814 57.7541 14.4314 75.6441 8.67141C79.9541 7.28141 84.5441 6.53141 89.3241 6.53141C92.9441 6.53141 96.4741 6.97141 99.8441 7.79141C99.8541 7.79141 99.8641 7.79141 99.8741 7.79141C99.9541 7.82141 100.034 7.84141 100.124 7.84141C100.514 7.84141 100.834 7.52141 100.834 7.13141C100.834 6.94141 100.754 6.76141 100.634 6.63141C100.534 6.57141 100.434 6.52141 100.334 6.46141C93.1941 2.62141 85.0341 0.441406 76.3541 0.441406C75.2241 0.441406 74.0941 0.481406 72.9841 0.551406C47.6341 2.22141 27.3941 22.4914 25.7741 47.8214C25.7041 48.9114 25.6641 50.0014 25.6641 51.1114C25.6641 76.6714 44.5841 97.8014 69.1841 101.271C71.5141 101.601 73.9041 101.771 76.3241 101.771C85.0141 101.771 93.1941 99.5814 100.334 95.7314C100.394 95.7014 100.444 95.6714 100.504 95.6314C100.684 95.5014 100.804 95.3014 100.804 95.0714C100.804 94.6814 100.494 94.3714 100.104 94.3714" fill="#0A804F"></path>
    <path d="M18.0953 22.6242C18.9553 22.6242 19.7853 22.5242 20.5853 22.3342C25.2653 21.2142 28.7453 17.0042 28.7453 11.9742C28.7453 11.3842 28.6953 10.8142 28.6053 10.2542C27.7853 5.19422 23.3953 1.32422 18.0953 1.32422C14.3553 1.32422 11.0653 3.25422 9.16531 6.16422C8.07531 7.83422 7.44531 9.82422 7.44531 11.9642C7.44531 17.8442 12.2153 22.6142 18.0953 22.6142" fill="#0A804F"></path>
    <path d="M31.8972 92.5633C31.8972 92.5633 31.8772 92.5433 31.8772 92.5333C21.7472 81.6733 15.5472 67.1033 15.5472 51.0733C15.5472 47.7533 15.8172 44.4833 16.3272 41.3033C16.5572 39.8933 16.8372 38.4933 17.1572 37.1233C17.3572 36.2633 17.5772 35.4033 17.8172 34.5633C17.8372 34.3033 17.8572 34.0433 17.8572 33.7833C17.8572 33.3233 17.8172 32.8633 17.7472 32.4233C17.3672 30.0733 16.0072 28.0633 14.1172 26.7933C13.5172 26.3933 12.8672 26.0633 12.1672 25.8233C11.3072 25.5333 10.3972 25.3633 9.43719 25.3633C6.47719 25.3633 3.87719 26.8833 2.37719 29.1933C1.93719 29.8633 1.59719 30.5933 1.36719 31.3733C1.23719 32.2233 1.12719 33.0833 1.02719 33.9433C0.767188 36.2433 0.617188 38.5733 0.617188 40.9433C0.617188 63.4033 12.7972 83.0033 30.9072 93.5333C31.0072 93.5933 31.0972 93.6433 31.1972 93.7033C31.2672 93.7233 31.3372 93.7433 31.4172 93.7433C31.4972 93.7433 31.5772 93.7233 31.6472 93.6933C31.7072 93.6633 31.7572 93.6333 31.8172 93.5933C31.9972 93.4633 32.1172 93.2633 32.1172 93.0333C32.1172 92.8433 32.0472 92.6833 31.9272 92.5533" fill="#0A804F"></path>
    <path d="M253.416 72.4544H232.126V53.2144H252.266C252.266 53.2144 252.286 53.2144 252.306 53.2144C252.326 53.2144 252.326 53.2144 252.346 53.2144C253.606 53.1944 254.626 52.1944 254.686 50.9444C254.686 50.9044 254.696 50.8644 254.696 50.8244C254.696 50.7844 254.686 50.7444 254.686 50.7044C254.626 49.5044 253.686 48.5444 252.486 48.4544H232.136V29.7344H252.916C252.916 29.7344 253.006 29.7444 253.056 29.7444C253.106 29.7444 253.146 29.7344 253.196 29.7344C254.446 29.6644 255.436 28.6344 255.436 27.3644C255.436 26.0944 254.366 24.9844 253.056 24.9844H229.516C228.076 24.9844 226.906 26.1544 226.906 27.5944V74.5544C226.906 75.9944 228.076 77.1644 229.516 77.1644H253.066C254.376 77.1644 255.446 76.1044 255.446 74.7844C255.446 73.5944 254.566 72.6144 253.426 72.4444" fill="#606161"></path>
    <path d="M273.492 23.9025C274.592 23.7225 276.032 23.5625 277.862 23.5625C280.112 23.5625 281.762 24.0825 282.812 25.0325C283.782 25.8725 284.352 27.1525 284.352 28.7225C284.352 30.2925 283.882 31.5725 282.992 32.4925C281.782 33.7725 279.822 34.4325 277.602 34.4325C276.922 34.4325 276.292 34.4025 275.772 34.2725V41.3425H273.492V23.9025ZM275.772 32.4125C276.272 32.5425 276.902 32.5925 277.662 32.5925C280.412 32.5925 282.082 31.2625 282.082 28.8225C282.082 26.3825 280.432 25.3625 277.922 25.3625C276.922 25.3625 276.172 25.4425 275.772 25.5425V32.4025V32.4125Z" fill="#0A804F"></path>
    <path d="M292.35 23.6953V31.0753H300.89V23.6953H303.19V41.3453H300.89V33.0753H292.35V41.3453H290.07V23.6953H292.35Z" fill="#0A804F"></path>
    <path d="M324.872 32.3328C324.872 38.4128 321.182 41.6328 316.672 41.6328C312.162 41.6328 308.742 38.0228 308.742 32.6728C308.742 27.0728 312.222 23.4028 316.942 23.4028C321.662 23.4028 324.872 27.0928 324.872 32.3328ZM311.182 32.6228C311.182 36.3928 313.222 39.7728 316.812 39.7728C320.402 39.7728 322.472 36.4428 322.472 32.4428C322.472 28.9328 320.642 25.2728 316.842 25.2728C313.042 25.2728 311.182 28.7528 311.182 32.6328V32.6228ZM315.812 19.6328L318.222 22.6728H316.362L313.012 19.6328H315.812Z" fill="#0A804F"></path>
    <path d="M330.477 41.3453V23.6953H332.967L338.627 32.6253C339.937 34.6953 340.957 36.5553 341.797 38.3553L341.847 38.3253C341.637 35.9653 341.587 33.8253 341.587 31.0753V23.6953H343.737V41.3453H341.437L335.837 32.3853C334.607 30.4253 333.427 28.4053 332.537 26.4953L332.457 26.5253C332.587 28.7553 332.637 30.8753 332.637 33.8053V41.3453H330.487H330.477Z" fill="#0A804F"></path>
    <path d="M363.793 40.5634C362.773 40.9334 360.752 41.5334 358.372 41.5334C355.702 41.5334 353.502 40.8534 351.772 39.2034C350.252 37.7334 349.312 35.3834 349.312 32.6334C349.342 27.3734 352.952 23.5234 358.872 23.5234C360.912 23.5234 362.512 23.9734 363.272 24.3334L362.723 26.1934C361.783 25.7734 360.603 25.4334 358.823 25.4334C354.533 25.4334 351.723 28.1034 351.723 32.5334C351.723 36.9634 354.423 39.6534 358.533 39.6534C360.023 39.6534 361.043 39.4434 361.573 39.1834V33.9234H357.983V32.0934H363.793V40.5734V40.5634Z" fill="#0A804F"></path>
    <path d="M378.117 23.6953H380.397V32.2053H380.477C380.947 31.5253 381.417 30.8953 381.867 30.3253L387.257 23.7053H390.087L383.697 31.1953L390.587 41.3553H387.887L382.077 32.6853L380.397 34.6253V41.3553H378.117V23.6953Z" fill="#0A804F"></path>
    <path d="M397.241 23.6953V31.0753H405.781V23.6953H408.081V41.3453H405.781V33.0753H397.241V41.3453H394.961V23.6953H397.241Z" fill="#0A804F"></path>
    <path d="M417.542 35.7953L415.712 41.3453H413.352L419.352 23.6953H422.102L428.122 41.3453H425.682L423.792 35.7953H417.532H417.542ZM423.332 34.0153L421.602 28.9353C421.212 27.7853 420.952 26.7353 420.682 25.7153H420.632C420.372 26.7653 420.082 27.8353 419.742 28.9053L418.012 34.0153H423.332ZM424.592 19.6953L421.262 22.7553H419.372L421.812 19.6953H424.592Z" fill="#0A804F"></path>
    <path d="M448.129 33.5936C447.999 31.1336 447.839 28.1736 447.869 25.9736H447.789C447.189 28.0436 446.449 30.2436 445.559 32.6736L442.439 41.2336H440.709L437.859 32.8236C437.019 30.3336 436.319 28.0536 435.819 25.9636H435.769C435.719 28.1636 435.589 31.1236 435.429 33.7636L434.959 41.3336H432.789L434.019 23.6836H436.929L439.939 32.2236C440.669 34.3936 441.269 36.3336 441.719 38.1636H441.799C442.239 36.3836 442.869 34.4436 443.659 32.2236L446.799 23.6836H449.709L450.809 41.3336H448.579L448.129 33.5836V33.5936Z" fill="#0A804F"></path>
    <path d="M479.712 43.9323C477.332 43.3023 475.002 42.6023 472.952 41.8923C472.582 41.7623 472.222 41.6323 471.882 41.6323C467.692 41.4723 464.102 38.3823 464.102 32.7023C464.102 27.0223 467.562 23.4023 472.322 23.4023C477.082 23.4023 480.232 27.1223 480.232 32.3323C480.232 36.8623 478.142 39.7723 475.202 40.7923V40.8923C476.952 41.3423 478.872 41.7523 480.362 42.0223L479.712 43.9323ZM477.822 32.4423C477.822 28.9023 475.992 25.2723 472.242 25.2723C468.492 25.2723 466.512 28.8323 466.532 32.6523C466.502 36.3923 468.572 39.7723 472.132 39.7723C475.692 39.7723 477.812 36.4723 477.812 32.4423H477.822Z" fill="#0A804F"></path>
    <path d="M488.117 23.6953V34.1453C488.117 38.0953 489.867 39.7753 492.227 39.7753C494.847 39.7753 496.517 38.0453 496.517 34.1453V23.6953H498.817V33.9853C498.817 39.4053 495.967 41.6353 492.137 41.6353C488.527 41.6353 485.797 39.5653 485.797 34.0953V23.6953H488.097H488.117Z" fill="#0A804F"></path>
    <path d="M520.521 32.3334C520.521 38.4134 516.831 41.6334 512.321 41.6334C507.811 41.6334 504.391 38.0234 504.391 32.6734C504.391 27.0734 507.871 23.4034 512.591 23.4034C517.311 23.4034 520.521 27.0934 520.521 32.3334ZM506.831 32.6234C506.831 36.3934 508.871 39.7734 512.461 39.7734C516.051 39.7734 518.121 36.4434 518.121 32.4434C518.121 28.9334 516.291 25.2734 512.491 25.2734C508.691 25.2734 506.831 28.7534 506.831 32.6334V32.6234ZM513.511 19.7634L516.001 22.7434H514.171L512.701 20.9134H512.651L511.211 22.7434H509.461L511.871 19.7634H513.521H513.511ZM519.271 17.7734L516.101 20.5234H514.741L516.941 17.7734H519.271Z" fill="#0A804F"></path>
    <path d="M538.458 40.7741C537.618 41.1941 535.948 41.6141 533.798 41.6141C528.818 41.6141 525.078 38.4741 525.078 32.6841C525.078 26.8941 528.818 23.4141 534.298 23.4141C536.498 23.4141 537.888 23.8841 538.488 24.2041L537.938 26.0641C537.078 25.6441 535.848 25.3341 534.378 25.3341C530.238 25.3341 527.488 27.9741 527.488 32.6141C527.488 36.9341 529.978 39.7141 534.268 39.7141C535.658 39.7141 537.068 39.4241 537.988 38.9841L538.458 40.7941V40.7741Z" fill="#0A804F"></path>
    <path d="M554.44 25.6353H549.07V23.6953H562.14V25.6353H556.75V41.3453H554.45V25.6353H554.44Z" fill="#0A804F"></path>
    <path d="M575.88 33.0752H569.02V39.4352H576.67V41.3452H566.75V23.6952H576.28V25.6052H569.03V31.1852H575.89V33.0652L575.88 33.0752ZM572.42 19.7752L574.91 22.7552H573.08L571.64 20.9252H571.59L570.12 22.7552H568.37L570.78 19.7752H572.43H572.42ZM578.18 17.7852L575.01 20.5352H573.65L575.85 17.7852H578.18Z" fill="#0A804F"></path>
    <path d="M592.749 23.6953V41.3453H590.469V23.6953H592.749Z" fill="#0A804F"></path>
    <path d="M611.708 40.7741C610.868 41.1941 609.198 41.6141 607.048 41.6141C602.068 41.6141 598.328 38.4741 598.328 32.6841C598.328 26.8941 602.068 23.4141 607.548 23.4141C609.748 23.4141 611.138 23.8841 611.738 24.2041L611.188 26.0641C610.328 25.6441 609.098 25.3341 607.628 25.3341C603.488 25.3341 600.738 27.9741 600.738 32.6141C600.738 36.9341 603.228 39.7141 607.518 39.7141C608.908 39.7141 610.318 39.4241 611.238 38.9841L611.708 40.7941V40.7741Z" fill="#0A804F"></path>
    <path d="M628.997 40.7741C628.157 41.1941 626.487 41.6141 624.337 41.6141C619.357 41.6141 615.617 38.4741 615.617 32.6841C615.617 26.8941 619.357 23.4141 624.837 23.4141C627.037 23.4141 628.427 23.8841 629.027 24.2041L628.477 26.0641C627.617 25.6441 626.387 25.3341 624.917 25.3341C620.777 25.3341 618.027 27.9741 618.027 32.6141C618.027 36.9341 620.517 39.7141 624.807 39.7141C626.197 39.7141 627.607 39.4241 628.527 38.9841L628.997 40.7941V40.7741Z" fill="#0A804F"></path>
    <path d="M637.456 35.7953L635.626 41.3453H633.266L639.266 23.6953H642.016L648.036 41.3453H645.596L643.716 35.7953H637.456ZM643.246 34.0153L641.516 28.9353C641.126 27.7853 640.866 26.7353 640.596 25.7153H640.546C640.286 26.7653 639.996 27.8353 639.656 28.9053L637.926 34.0153H643.246Z" fill="#0A804F"></path>
    <path d="M653.278 23.9325C654.428 23.6925 656.078 23.5625 657.648 23.5625C660.088 23.5625 661.658 24.0125 662.758 25.0025C663.648 25.7925 664.148 26.9925 664.148 28.3525C664.148 30.6825 662.678 32.2325 660.818 32.8525V32.9325C662.178 33.4025 662.988 34.6625 663.408 36.4925C663.988 38.9525 664.408 40.6525 664.768 41.3325H662.408C662.118 40.8325 661.728 39.3125 661.228 37.1125C660.708 34.6725 659.758 33.7625 657.688 33.6825H655.538V41.3325H653.258V23.9325H653.278ZM655.558 31.9725H657.888C660.318 31.9725 661.868 30.6325 661.868 28.6225C661.868 26.3425 660.218 25.3525 657.808 25.3225C656.708 25.3225 655.928 25.4225 655.558 25.5325V31.9725Z" fill="#0A804F"></path>
    <path d="M679.146 33.0753H672.286V39.4353H679.936V41.3453H670.016V23.6953H679.546V25.6053H672.296V31.1853H679.156V33.0653L679.146 33.0753Z" fill="#0A804F"></path>
    <path d="M276.839 57.3423H271.469V55.4023H284.539V57.3423H279.149V73.0523H276.849V57.3423H276.839Z" fill="#0A804F"></path>
    <path d="M287.817 55.6317C288.967 55.3917 290.617 55.2617 292.187 55.2617C294.627 55.2617 296.197 55.7017 297.297 56.7017C298.187 57.4917 298.687 58.6917 298.687 60.0517C298.687 62.3817 297.217 63.9317 295.357 64.5517V64.6317C296.717 65.1017 297.527 66.3617 297.947 68.1917C298.527 70.6517 298.947 72.3517 299.307 73.0317H296.947C296.657 72.5317 296.267 71.0117 295.767 68.8117C295.247 66.3817 294.297 65.4617 292.227 65.3817H290.077V73.0317H287.797V55.6217L287.817 55.6317ZM290.097 63.6717H292.427C294.857 63.6717 296.407 62.3417 296.407 60.3217C296.407 58.0417 294.757 57.0517 292.347 57.0217C291.247 57.0217 290.467 57.1217 290.097 57.2317V63.6717Z" fill="#0A804F"></path>
    <path d="M303.086 76.4523C303.086 75.7723 303.666 75.1423 304.396 75.1423C305.126 75.1423 305.656 75.7723 305.656 76.4523C305.656 77.1323 305.136 77.7823 304.396 77.7823C303.656 77.7823 303.086 77.1323 303.086 76.4523ZM305.496 55.4023V73.0523H303.216V55.4023H305.496Z" fill="#0A804F"></path>
    <path d="M317.648 55.4023H319.928V71.1423H327.468V73.0523H317.648V55.4023Z" fill="#0A804F"></path>
    <path d="M333.6 55.4023V73.0523H331.32V55.4023H333.6Z" fill="#0A804F"></path>
    <path d="M348.028 64.7727H341.168V71.1327H348.818V73.0427H338.898V55.3927H348.428V57.3027H341.178V62.8827H348.038V64.7727H348.028ZM344.498 51.4727L347.248 54.4527H345.308L343.628 52.6427H343.578L341.928 54.4527H340.038L342.738 51.4727H344.488H344.498ZM342.608 76.4527C342.608 75.7727 343.188 75.1427 343.948 75.1427C344.658 75.1427 345.208 75.7727 345.208 76.4527C345.208 77.1327 344.658 77.7827 343.928 77.7827C343.198 77.7827 342.618 77.1327 342.618 76.4527H342.608Z" fill="#0A804F"></path>
    <path d="M355.359 55.4023V65.8523C355.359 69.8023 357.109 71.4823 359.469 71.4823C362.089 71.4823 363.759 69.7523 363.759 65.8523V55.4023H366.059V65.6923C366.059 71.1123 363.209 73.3423 359.379 73.3423C355.769 73.3423 353.039 71.2723 353.039 65.8023V55.4123H355.339L355.359 55.4023Z" fill="#0A804F"></path>
    <path d="M387.857 73.0541L385.607 69.1541C384.687 67.6641 384.117 66.6941 383.567 65.6741H383.517C383.017 66.6941 382.517 67.6341 381.607 69.1841L379.487 73.0641H376.867L382.257 64.1341L377.077 55.4141H379.717L382.047 59.5541C382.707 60.7041 383.197 61.5941 383.667 62.5441H383.747C384.247 61.4941 384.687 60.6841 385.347 59.5541L387.757 55.4141H390.377L385.007 64.0041L390.507 73.0641H387.867L387.857 73.0541Z" fill="#0A804F"></path>
    <path d="M409.758 52.5742C410.018 53.1542 410.207 53.8042 410.207 54.5342C410.207 55.8142 409.418 56.7042 407.848 56.7642L407.457 56.7942V65.6942C407.457 71.1142 404.607 73.3442 400.777 73.3442C397.167 73.3442 394.438 71.2742 394.438 65.8042V55.4142H396.737V65.8642C396.737 69.8142 398.488 71.4942 400.848 71.4942C403.468 71.4942 405.137 69.7642 405.137 65.8642V55.4142H407.207C408.097 55.4142 408.417 55.1042 408.417 54.4142C408.417 53.9142 408.257 53.3642 407.997 52.8942L409.747 52.5842L409.758 52.5742Z" fill="#0A804F"></path>
    <path d="M428.815 53.3342C429.075 53.9142 429.285 54.5942 429.285 55.4842C429.285 56.9242 428.425 57.9942 426.535 57.8142C427.715 59.1742 428.575 61.2942 428.575 64.0442C428.575 70.1142 424.885 73.3342 420.375 73.3342C415.865 73.3342 412.445 69.7242 412.445 64.3742C412.445 58.7742 415.925 55.1042 420.645 55.1042C421.695 55.1042 422.685 55.3142 423.365 55.5542C424.175 55.8142 425.435 56.4942 426.275 56.4942C427.115 56.4942 427.455 56.1042 427.455 55.3442C427.455 54.7142 427.275 54.1442 427.035 53.6642L428.815 53.3242V53.3342ZM426.175 64.1442C426.175 60.6342 424.345 56.9742 420.545 56.9742C416.745 56.9742 414.865 60.5142 414.885 64.3342C414.855 68.0542 416.905 71.4842 420.515 71.4842C424.125 71.4842 426.175 68.1542 426.175 64.1542V64.1442Z" fill="#0A804F"></path>
    <path d="M432.859 73.0523V55.4023H435.349L441.009 64.3323C442.319 66.4023 443.339 68.2623 444.179 70.0623L444.229 70.0323C444.019 67.6723 443.969 65.5323 443.969 62.7823V55.4023H446.119V73.0523H443.819L438.219 64.0923C436.989 62.1323 435.809 60.1123 434.919 58.2023L434.839 58.2323C434.969 60.4623 435.019 62.5823 435.019 65.5123V73.0523H432.869H432.859Z" fill="#0A804F"></path>
    <path d="M464.839 72.2627C463.819 72.6327 461.799 73.2327 459.419 73.2327C456.749 73.2327 454.549 72.5527 452.819 70.9027C451.299 69.4327 450.359 67.0827 450.359 64.3327C450.389 59.0727 453.999 55.2227 459.919 55.2227C461.959 55.2227 463.559 55.6727 464.319 56.0327L463.769 57.8927C462.829 57.4727 461.649 57.1327 459.869 57.1327C455.579 57.1327 452.769 59.8027 452.769 64.2327C452.769 68.6627 455.469 71.3527 459.579 71.3527C461.069 71.3527 462.089 71.1427 462.619 70.8827V65.6227H459.029V63.7927H464.839V72.2727V72.2627Z" fill="#0A804F"></path>
    <path d="M476.492 55.4023H478.772V63.9123H478.852C479.322 63.2323 479.792 62.6023 480.242 62.0223L485.632 55.4023H488.462L482.072 62.8923L488.962 73.0523H486.262L480.452 64.3823L478.772 66.3223V73.0523H476.492V55.4023Z" fill="#0A804F"></path>
    <path d="M494.272 55.4023V62.7823H502.812V55.4023H505.112V73.0523H502.812V64.7823H494.272V73.0523H491.992V55.4023H494.272Z" fill="#0A804F"></path>
    <path d="M525.698 53.3345C525.958 53.9145 526.168 54.5945 526.168 55.4845C526.168 56.9245 525.308 57.9945 523.418 57.8145C524.598 59.1745 525.458 61.2945 525.458 64.0445C525.458 70.1145 521.768 73.3345 517.258 73.3345C512.748 73.3345 509.328 69.7245 509.328 64.3745C509.328 58.7745 512.808 55.1045 517.528 55.1045C518.578 55.1045 519.568 55.3145 520.248 55.5545C521.058 55.8145 522.318 56.4945 523.158 56.4945C523.998 56.4945 524.338 56.1045 524.338 55.3445C524.338 54.7145 524.158 54.1445 523.918 53.6645L525.698 53.3245V53.3345ZM523.058 64.1445C523.058 60.6345 521.228 56.9745 517.428 56.9745C513.628 56.9745 511.748 60.5145 511.768 64.3345C511.738 68.0545 513.788 71.4845 517.398 71.4845C521.008 71.4845 523.058 68.1545 523.058 64.1545V64.1445ZM521.458 51.3945L518.108 54.4545H516.248L518.658 51.3945H521.458Z" fill="#0A804F"></path>
    <path d="M529.742 55.6134C530.842 55.4334 532.282 55.2734 534.112 55.2734C536.362 55.2734 538.012 55.7934 539.062 56.7434C540.032 57.5834 540.602 58.8634 540.602 60.4334C540.602 62.0034 540.132 63.2834 539.242 64.2034C538.032 65.4834 536.072 66.1434 533.852 66.1434C533.172 66.1434 532.542 66.1134 532.022 65.9834V73.0534H529.742V55.6134ZM532.022 64.1234C532.522 64.2534 533.152 64.3034 533.912 64.3034C536.662 64.3034 538.332 62.9634 538.332 60.5334C538.332 58.1034 536.682 57.0734 534.172 57.0734C533.172 57.0734 532.422 57.1534 532.022 57.2534V64.1134V64.1234Z" fill="#0A804F"></path>
    <path d="M564.169 72.4733C563.329 72.8933 561.659 73.3133 559.509 73.3133C554.529 73.3133 550.789 70.1733 550.789 64.3833C550.789 58.5933 554.529 55.1133 560.009 55.1133C562.209 55.1133 563.599 55.5833 564.199 55.9033L563.649 57.7633C562.789 57.3433 561.559 57.0333 560.089 57.0333C555.949 57.0333 553.199 59.6733 553.199 64.3133C553.199 68.6333 555.689 71.4133 559.979 71.4133C561.369 71.4133 562.779 71.1233 563.699 70.6833L564.169 72.4933V72.4733Z" fill="#0A804F"></path>
    <path d="M582.872 64.0445C582.872 70.1145 579.182 73.3345 574.672 73.3345C570.162 73.3345 566.742 69.7245 566.742 64.3745C566.742 58.7745 570.222 55.1045 574.942 55.1045C579.662 55.1045 582.872 58.7945 582.872 64.0345V64.0445ZM569.182 64.3345C569.182 68.1045 571.222 71.4845 574.812 71.4845C578.402 71.4845 580.472 68.1545 580.472 64.1545C580.472 60.6445 578.642 56.9845 574.842 56.9845C571.042 56.9845 569.182 60.4645 569.182 64.3445V64.3345ZM575.672 51.3945L578.422 54.3845H576.482L574.802 52.5745H574.752L573.102 54.3845H571.212L573.912 51.3945H575.662H575.672ZM573.522 76.4545C573.522 75.7745 574.102 75.1445 574.852 75.1445C575.562 75.1445 576.112 75.7745 576.112 76.4545C576.112 77.1345 575.562 77.7845 574.832 77.7845C574.102 77.7845 573.522 77.1345 573.522 76.4545Z" fill="#0A804F"></path>
    <path d="M589.839 57.3423H584.469V55.4023H597.539V57.3423H592.149V73.0523H589.849V57.3423H589.839Z" fill="#0A804F"></path>
    <path d="M607.371 70.2733C608.391 70.9033 609.881 71.4233 611.451 71.4233C613.781 71.4233 615.141 70.1933 615.141 68.4133C615.141 66.7633 614.201 65.8233 611.811 64.9033C608.931 63.8833 607.151 62.3933 607.151 59.9033C607.151 57.1533 609.431 55.1133 612.861 55.1133C614.671 55.1133 615.981 55.5333 616.761 55.9733L616.131 57.8333C615.551 57.5233 614.381 56.9933 612.781 56.9933C610.371 56.9933 609.451 58.4333 609.451 59.6333C609.451 61.2833 610.521 62.0933 612.961 63.0333C615.951 64.1833 617.461 65.6233 617.461 68.2133C617.461 70.9333 615.441 73.2933 611.281 73.2933C609.581 73.2933 607.721 72.7933 606.781 72.1633L607.361 70.2533L607.371 70.2733Z" fill="#0A804F"></path>
    <path d="M636.982 64.0444C636.982 70.1144 633.292 73.3344 628.782 73.3344C624.272 73.3344 620.852 69.7244 620.852 64.3744C620.852 58.7744 624.332 55.1044 629.052 55.1044C633.772 55.1044 636.982 58.7944 636.982 64.0344V64.0444ZM623.292 64.3344C623.292 68.1044 625.332 71.4844 628.922 71.4844C632.512 71.4844 634.582 68.1544 634.582 64.1544C634.582 60.6444 632.752 56.9844 628.952 56.9844C625.152 56.9844 623.292 60.4644 623.292 64.3444V64.3344ZM629.972 51.4744L632.462 54.4544H630.632L629.162 52.6244H629.112L627.672 54.4544H625.922L628.332 51.4744H629.982H629.972ZM635.732 49.4844L632.562 52.2344H631.202L633.402 49.4844H635.732Z" fill="#0A804F"></path>
    <path d="M641.258 73.0523V55.4023H643.748L649.408 64.3323C650.718 66.4023 651.738 68.2623 652.578 70.0623L652.628 70.0323C652.418 67.6723 652.368 65.5323 652.368 62.7823V55.4023H654.518V73.0523H652.218L646.618 64.0923C645.388 62.1323 644.208 60.1123 643.318 58.2023L643.238 58.2323C643.368 60.4623 643.418 62.5823 643.418 65.5123V73.0523H641.268H641.258Z" fill="#0A804F"></path>
    <path d="M673.23 72.2627C672.21 72.6327 670.19 73.2327 667.81 73.2327C665.14 73.2327 662.94 72.5527 661.21 70.9027C659.69 69.4327 658.75 67.0827 658.75 64.3327C658.78 59.0727 662.39 55.2227 668.31 55.2227C670.35 55.2227 671.95 55.6727 672.71 56.0327L672.16 57.8927C671.22 57.4727 670.04 57.1327 668.26 57.1327C663.97 57.1327 661.16 59.8027 661.16 64.2327C661.16 68.6627 663.86 71.3527 667.97 71.3527C669.46 71.3527 670.48 71.1427 671.01 70.8827V65.6227H667.42V63.7927H673.23V72.2727V72.2627Z" fill="#0A804F"></path>
    <path d="M122.383 88.2031V107.013H119.953V88.2031H122.383Z" fill="#606161"></path>
    <path d="M133.665 97.1614C133.665 95.7614 133.635 94.6214 133.555 93.5014H135.735L135.875 95.7314H135.935C136.605 94.4514 138.165 93.1914 140.405 93.1914C142.275 93.1914 145.175 94.3114 145.175 98.9414V107.011H142.715V99.2214C142.715 97.0414 141.905 95.2314 139.585 95.2314C137.965 95.2314 136.705 96.3714 136.295 97.7414C136.185 98.0514 136.125 98.4714 136.125 98.8814V107.001H133.665V97.1514V97.1614Z" fill="#606161"></path>
    <path d="M158.836 89.6333V93.5133H162.356V95.3833H158.836V102.663C158.836 104.333 159.306 105.283 160.676 105.283C161.316 105.283 161.796 105.203 162.096 105.113L162.206 106.953C161.736 107.153 160.976 107.283 160.026 107.283C158.886 107.283 157.966 106.923 157.376 106.253C156.676 105.523 156.426 104.323 156.426 102.733V95.3633H154.336V93.4933H156.426V90.2533L158.826 89.6133L158.836 89.6333Z" fill="#606161"></path>
    <path d="M173.153 100.715C173.213 104.035 175.333 105.405 177.783 105.405C179.543 105.405 180.603 105.095 181.523 104.705L181.943 106.465C181.073 106.855 179.602 107.305 177.452 107.305C173.292 107.305 170.812 104.565 170.812 100.495C170.812 96.4248 173.213 93.2148 177.143 93.2148C181.553 93.2148 182.723 97.0948 182.723 99.5748C182.723 100.075 182.663 100.465 182.643 100.715H173.153ZM180.353 98.9548C180.383 97.3948 179.713 94.9648 176.943 94.9648C174.463 94.9648 173.373 97.2548 173.173 98.9548H180.342H180.353Z" fill="#606161"></path>
    <path d="M192.602 97.7231C192.602 96.1331 192.572 94.7631 192.492 93.5131H194.642L194.722 96.1631H194.832C195.442 94.3531 196.922 93.2031 198.572 93.2031C198.852 93.2031 199.042 93.2331 199.272 93.2831V95.6031C199.022 95.5431 198.772 95.5231 198.432 95.5231C196.702 95.5231 195.472 96.8331 195.142 98.6731C195.082 99.0031 195.032 99.4031 195.032 99.8131V107.013H192.602V97.7231Z" fill="#606161"></path>
    <path d="M208.68 97.1614C208.68 95.7614 208.65 94.6214 208.57 93.5014H210.75L210.89 95.7314H210.95C211.62 94.4514 213.18 93.1914 215.42 93.1914C217.29 93.1914 220.19 94.3114 220.19 98.9414V107.011H217.73V99.2214C217.73 97.0414 216.92 95.2314 214.6 95.2314C212.98 95.2314 211.72 96.3714 211.31 97.7414C211.2 98.0514 211.14 98.4714 211.14 98.8814V107.001H208.68V97.1514V97.1614Z" fill="#606161"></path>
    <path d="M238.485 107.013L238.285 105.313H238.205C237.455 106.373 236.005 107.323 234.075 107.323C231.335 107.323 229.945 105.393 229.945 103.443C229.945 100.183 232.845 98.3931 238.065 98.4231V98.1431C238.065 97.0231 237.755 95.0231 234.995 95.0231C233.735 95.0231 232.425 95.4131 231.475 96.0231L230.915 94.4031C232.035 93.6731 233.655 93.2031 235.355 93.2031C239.485 93.2031 240.495 96.0231 240.495 98.7331V103.783C240.495 104.953 240.555 106.103 240.715 107.023H238.485V107.013ZM238.125 100.123C235.445 100.063 232.405 100.543 232.405 103.163C232.405 104.753 233.465 105.503 234.725 105.503C236.485 105.503 237.605 104.383 237.995 103.243C238.075 102.993 238.135 102.713 238.135 102.463V100.123H238.125Z" fill="#606161"></path>
    <path d="M254.141 89.6333V93.5133H257.661V95.3833H254.141V102.663C254.141 104.333 254.611 105.283 255.981 105.283C256.621 105.283 257.101 105.203 257.401 105.113L257.511 106.953C257.041 107.153 256.281 107.283 255.331 107.283C254.191 107.283 253.271 106.923 252.681 106.253C251.981 105.523 251.731 104.323 251.731 102.733V95.3633H249.641V93.4933H251.731V90.2533L254.131 89.6133L254.141 89.6333Z" fill="#606161"></path>
    <path d="M269.993 89.7119C270.023 90.5519 269.403 91.2219 268.433 91.2219C267.573 91.2219 266.953 90.5519 266.953 89.7119C266.953 88.8719 267.593 88.1719 268.493 88.1719C269.393 88.1719 270.003 88.8419 270.003 89.7119H269.993ZM267.253 107.012V93.5019H269.713V107.012H267.253Z" fill="#606161"></path>
    <path d="M292.856 100.153C292.856 105.153 289.396 107.323 286.126 107.323C282.466 107.323 279.656 104.643 279.656 100.373C279.656 95.8531 282.616 93.2031 286.356 93.2031C290.096 93.2031 292.856 96.0231 292.856 100.153ZM282.136 100.293C282.136 103.253 283.836 105.483 286.236 105.483C288.636 105.483 290.336 103.283 290.336 100.233C290.336 97.9431 289.196 95.0431 286.286 95.0431C283.376 95.0431 282.126 97.7231 282.126 100.293H282.136Z" fill="#606161"></path>
    <path d="M302.79 97.1614C302.79 95.7614 302.76 94.6214 302.68 93.5014H304.86L305 95.7314H305.06C305.73 94.4514 307.29 93.1914 309.53 93.1914C311.4 93.1914 314.3 94.3114 314.3 98.9414V107.011H311.84V99.2214C311.84 97.0414 311.03 95.2314 308.71 95.2314C307.09 95.2314 305.83 96.3714 305.42 97.7414C305.31 98.0514 305.25 98.4714 305.25 98.8814V107.001H302.79V97.1514V97.1614Z" fill="#606161"></path>
    <path d="M332.595 107.013L332.395 105.313H332.315C331.565 106.373 330.115 107.323 328.185 107.323C325.445 107.323 324.055 105.393 324.055 103.443C324.055 100.183 326.955 98.3931 332.175 98.4231V98.1431C332.175 97.0231 331.865 95.0231 329.105 95.0231C327.845 95.0231 326.535 95.4131 325.585 96.0231L325.025 94.4031C326.145 93.6731 327.765 93.2031 329.465 93.2031C333.595 93.2031 334.605 96.0231 334.605 98.7331V103.783C334.605 104.953 334.665 106.103 334.825 107.023H332.595V107.013ZM332.235 100.123C329.555 100.063 326.515 100.543 326.515 103.163C326.515 104.753 327.575 105.503 328.835 105.503C330.595 105.503 331.715 104.383 332.105 103.243C332.185 102.993 332.245 102.713 332.245 102.463V100.123H332.235Z" fill="#606161"></path>
    <path d="M345.406 87.2031H347.866V107.013H345.406V87.2031Z" fill="#606161"></path>
    <path d="M384.815 106.405C383.925 106.855 382.135 107.295 379.845 107.295C374.545 107.295 370.555 103.945 370.555 97.7745C370.555 91.6045 374.545 87.8945 380.375 87.8945C382.715 87.8945 384.195 88.3945 384.845 88.7345L384.255 90.7145C383.335 90.2645 382.025 89.9345 380.455 89.9345C376.045 89.9345 373.115 92.7545 373.115 97.6945C373.115 102.305 375.765 105.255 380.345 105.255C381.825 105.255 383.335 104.945 384.305 104.475L384.805 106.405H384.815Z" fill="#606161"></path>
    <path d="M394.602 87.2031H397.062V95.6331H397.122C397.512 94.9331 398.122 94.3231 398.882 93.9031C399.612 93.4831 400.472 93.2031 401.392 93.2031C403.202 93.2031 406.112 94.3231 406.112 98.9831V107.023H403.652V99.2631C403.652 97.0831 402.842 95.2431 400.522 95.2431C398.932 95.2431 397.672 96.3631 397.232 97.7031C397.092 98.0331 397.062 98.4031 397.062 98.8731V107.023H394.602V87.2131V87.2031Z" fill="#606161"></path>
    <path d="M419.673 89.7119C419.703 90.5519 419.083 91.2219 418.113 91.2219C417.253 91.2219 416.633 90.5519 416.633 89.7119C416.633 88.8719 417.273 88.1719 418.173 88.1719C419.073 88.1719 419.683 88.8419 419.683 89.7119H419.673ZM416.933 107.012V93.5019H419.393V107.012H416.933Z" fill="#606161"></path>
    <path d="M430.305 97.7231C430.305 96.1331 430.275 94.7631 430.195 93.5131H432.345L432.425 96.1631H432.535C433.145 94.3531 434.625 93.2031 436.275 93.2031C436.555 93.2031 436.745 93.2331 436.975 93.2831V95.6031C436.725 95.5431 436.475 95.5231 436.135 95.5231C434.405 95.5231 433.175 96.8331 432.845 98.6731C432.785 99.0031 432.735 99.4031 432.735 99.8131V107.013H430.305V97.7231Z" fill="#606161"></path>
    <path d="M458.216 100.153C458.216 105.153 454.756 107.323 451.486 107.323C447.826 107.323 445.016 104.643 445.016 100.373C445.016 95.8531 447.976 93.2031 451.716 93.2031C455.456 93.2031 458.216 96.0231 458.216 100.153ZM447.496 100.293C447.496 103.253 449.196 105.483 451.596 105.483C453.996 105.483 455.696 103.283 455.696 100.233C455.696 97.9431 454.556 95.0431 451.646 95.0431C448.736 95.0431 447.486 97.7231 447.486 100.293H447.496Z" fill="#606161"></path>
    <path d="M468.141 97.9131C468.141 96.1831 468.081 94.7831 468.031 93.5031H470.241L470.351 95.8231H470.411C471.411 94.1731 473.011 93.2031 475.211 93.2031C478.481 93.2031 480.931 95.9631 480.931 100.073C480.931 104.933 477.971 107.333 474.791 107.333C473.001 107.333 471.441 106.553 470.631 105.213H470.571V112.553H468.141V97.9331V97.9131ZM470.571 101.513C470.571 101.873 470.631 102.213 470.681 102.513C471.131 104.213 472.611 105.393 474.361 105.393C476.961 105.393 478.461 103.273 478.461 100.173C478.461 97.4631 477.041 95.1531 474.441 95.1531C472.771 95.1531 471.201 96.3531 470.731 98.1931C470.651 98.5031 470.561 98.8631 470.561 99.1931V101.513H470.571Z" fill="#606161"></path>
    <path d="M490.86 97.7231C490.86 96.1331 490.83 94.7631 490.75 93.5131H492.9L492.98 96.1631H493.09C493.7 94.3531 495.18 93.2031 496.83 93.2031C497.11 93.2031 497.3 93.2331 497.53 93.2831V95.6031C497.28 95.5431 497.03 95.5231 496.69 95.5231C494.96 95.5231 493.73 96.8331 493.4 98.6731C493.34 99.0031 493.29 99.4031 493.29 99.8131V107.013H490.86V97.7231Z" fill="#606161"></path>
    <path d="M514.165 107.013L513.965 105.313H513.885C513.135 106.373 511.685 107.323 509.755 107.323C507.015 107.323 505.625 105.393 505.625 103.443C505.625 100.183 508.525 98.3931 513.745 98.4231V98.1431C513.745 97.0231 513.435 95.0231 510.675 95.0231C509.415 95.0231 508.105 95.4131 507.155 96.0231L506.595 94.4031C507.715 93.6731 509.335 93.2031 511.035 93.2031C515.165 93.2031 516.175 96.0231 516.175 98.7331V103.783C516.175 104.953 516.235 106.103 516.395 107.023H514.165V107.013ZM513.805 100.123C511.125 100.063 508.085 100.543 508.085 103.163C508.085 104.753 509.145 105.503 510.405 105.503C512.165 105.503 513.285 104.383 513.675 103.243C513.755 102.993 513.815 102.713 513.815 102.463V100.123H513.805Z" fill="#606161"></path>
    <path d="M536.602 106.514C535.962 106.844 534.532 107.294 532.722 107.294C528.652 107.294 525.992 104.534 525.992 100.404C525.992 96.2744 528.842 93.2344 533.252 93.2344C534.702 93.2344 535.992 93.5944 536.662 93.9344L536.102 95.8344C535.512 95.5044 534.592 95.1944 533.252 95.1944C530.152 95.1944 528.482 97.4844 528.482 100.304C528.482 103.434 530.492 105.354 533.172 105.354C534.562 105.354 535.492 104.994 536.182 104.684L536.602 106.524V106.514Z" fill="#606161"></path>
    <path d="M549.641 89.6333V93.5133H553.161V95.3833H549.641V102.663C549.641 104.333 550.111 105.283 551.481 105.283C552.121 105.283 552.601 105.203 552.901 105.113L553.011 106.953C552.541 107.153 551.781 107.283 550.831 107.283C549.691 107.283 548.771 106.923 548.181 106.253C547.481 105.523 547.231 104.323 547.231 102.733V95.3633H545.141V93.4933H547.231V90.2533L549.631 89.6133L549.641 89.6333Z" fill="#606161"></path>
    <path d="M565.493 89.7119C565.523 90.5519 564.903 91.2219 563.933 91.2219C563.073 91.2219 562.453 90.5519 562.453 89.7119C562.453 88.8719 563.093 88.1719 563.993 88.1719C564.893 88.1719 565.503 88.8419 565.503 89.7119H565.493ZM562.753 107.012V93.5019H565.213V107.012H562.753Z" fill="#606161"></path>
    <path d="M585.751 106.514C585.111 106.844 583.681 107.294 581.871 107.294C577.801 107.294 575.141 104.534 575.141 100.404C575.141 96.2744 577.991 93.2344 582.401 93.2344C583.851 93.2344 585.141 93.5944 585.811 93.9344L585.251 95.8344C584.661 95.5044 583.741 95.1944 582.401 95.1944C579.301 95.1944 577.631 97.4844 577.631 100.304C577.631 103.434 579.641 105.354 582.321 105.354C583.711 105.354 584.641 104.994 585.331 104.684L585.751 106.524V106.514Z" fill="#606161"></path>
    <path d="M621.44 106.405C620.55 106.855 618.76 107.295 616.47 107.295C611.17 107.295 607.18 103.945 607.18 97.7745C607.18 91.6045 611.17 87.8945 617 87.8945C619.34 87.8945 620.82 88.3945 621.47 88.7345L620.88 90.7145C619.96 90.2645 618.65 89.9345 617.08 89.9345C612.67 89.9345 609.74 92.7545 609.74 97.6945C609.74 102.305 612.39 105.255 616.97 105.255C618.45 105.255 619.96 104.945 620.93 104.475L621.43 106.405H621.44Z" fill="#606161"></path>
    <path d="M631.242 87.2031H633.702V107.013H631.242V87.2031Z" fill="#606161"></path>
    <path d="M647.399 89.7119C647.429 90.5519 646.809 91.2219 645.839 91.2219C644.979 91.2219 644.359 90.5519 644.359 89.7119C644.359 88.8719 644.999 88.1719 645.899 88.1719C646.799 88.1719 647.409 88.8419 647.409 89.7119H647.399ZM644.659 107.012V93.5019H647.119V107.012H644.659Z" fill="#606161"></path>
    <path d="M658.032 97.1614C658.032 95.7614 658.002 94.6214 657.922 93.5014H660.102L660.242 95.7314H660.302C660.972 94.4514 662.532 93.1914 664.772 93.1914C666.642 93.1914 669.542 94.3114 669.542 98.9414V107.011H667.082V99.2214C667.082 97.0414 666.272 95.2314 663.952 95.2314C662.332 95.2314 661.072 96.3714 660.662 97.7414C660.552 98.0514 660.492 98.4714 660.492 98.8814V107.001H658.032V97.1514V97.1614Z" fill="#606161"></path>
    <path d="M683.095 89.7119C683.125 90.5519 682.505 91.2219 681.535 91.2219C680.675 91.2219 680.055 90.5519 680.055 89.7119C680.055 88.8719 680.695 88.1719 681.595 88.1719C682.495 88.1719 683.105 88.8419 683.105 89.7119H683.095ZM680.355 107.012V93.5019H682.815V107.012H680.355Z" fill="#606161"></path>
    <path d="M703.36 106.514C702.72 106.844 701.29 107.294 699.48 107.294C695.41 107.294 692.75 104.534 692.75 100.404C692.75 96.2744 695.6 93.2344 700.01 93.2344C701.46 93.2344 702.75 93.5944 703.42 93.9344L702.86 95.8344C702.27 95.5044 701.35 95.1944 700.01 95.1944C696.91 95.1944 695.24 97.4844 695.24 100.304C695.24 103.434 697.25 105.354 699.93 105.354C701.32 105.354 702.25 104.994 702.94 104.684L703.36 106.524V106.514Z" fill="#606161"></path>
  </g>
  <defs>
    <clipPath id="clip0_1003_5658">
      <rect width="702.83" height="112.09" fill="white" transform="translate(0.585938 0.453125)"></rect>
    </clipPath>
  </defs>
</svg>
