<?xml version="1.0" encoding="UTF-8"?>
<svg xmlns="http://www.w3.org/2000/svg" width="500" height="81" viewBox="0 0 500 81" fill="none">
  <g clip-path="url(#clip0_1015_6605)">
    <path d="M101.484 20.2245L101.783 19.5273C101.655 19.7479 101.556 19.9826 101.484 20.2245Z" fill="white"></path>
    <path d="M84.7486 45.0158C84.1795 45.0158 83.6815 45.2933 83.3614 45.713C83.34 45.7415 83.3187 45.7699 83.2974 45.7984C81.8532 47.5342 80.2383 48.9144 78.4527 49.9317C76.2473 51.1624 73.8854 51.7742 71.3812 51.7742C67.3404 51.7742 63.8119 50.2447 60.7812 47.1856C57.7649 44.1408 56.2638 40.598 56.2638 36.5643C56.2638 32.5306 57.7364 28.8882 60.6888 25.8434C63.6838 22.7487 67.2266 21.205 71.3101 21.205C76.3327 21.205 80.2881 23.1115 83.1764 26.9176C83.2191 26.9816 83.2689 27.0385 83.3116 27.1025C83.6317 27.4938 84.1155 27.7499 84.6704 27.7499C85.645 27.7499 86.4347 26.9603 86.4347 25.9856C86.4347 25.694 86.3564 25.4165 86.2284 25.1746C86.0861 24.9897 85.9296 24.8047 85.7659 24.6197C85.6877 24.5272 85.6166 24.4419 85.5312 24.3494C81.7607 20.0881 77.0441 17.9609 71.3812 17.9609C66.1453 17.9609 61.7203 19.7466 58.1063 23.3107C54.4782 26.8891 52.6641 31.2928 52.6641 36.5145C52.6641 41.7362 54.4995 46.0545 58.1775 49.6685C61.8341 53.2469 66.252 55.0396 71.4239 55.0396C77.6915 55.0396 82.6073 52.6208 86.1786 47.7761C86.1928 47.7619 86.1999 47.7405 86.2141 47.7263C86.3991 47.4489 86.5058 47.1216 86.5058 46.7659C86.5058 45.7984 85.7233 45.0158 84.7557 45.0158" fill="white"></path>
    <path d="M153.771 29.9194C153.771 24.9894 151.566 21.4608 147.162 19.3408C145.988 18.7859 144.487 18.3946 142.659 18.167C141.94 18.0887 141.151 18.0176 140.283 17.9678C139.614 17.9322 138.86 17.918 138.028 17.918H130.458C129.434 17.918 128.602 18.7503 128.602 19.7747V53.1754C128.602 54.207 129.434 55.0393 130.465 55.0393C131.497 55.0393 132.28 54.2497 132.322 53.2537C132.322 53.2252 132.322 53.2039 132.322 53.1754C132.322 53.147 132.322 53.1256 132.322 53.0972V21.2972H138.789C140.326 21.2972 141.563 21.3683 142.51 21.5177C143.783 21.7311 144.95 22.1224 146.01 22.6915C148.72 24.157 150.072 26.5331 150.072 29.8198C150.072 33.818 148.03 36.4431 143.947 37.6809C143.093 37.9584 141.948 38.1291 140.525 38.2003C140.525 38.2003 140.518 38.2003 140.511 38.2003C140.475 38.2003 140.439 38.2003 140.397 38.2003C139.173 38.2572 138.198 39.2674 138.198 40.5052C138.198 40.9036 138.298 41.2807 138.476 41.6079C138.583 41.8071 138.718 41.985 138.874 42.1415L147.923 54.2141L148.037 54.3706C148.379 54.7832 148.905 55.0464 149.481 55.0464C150.52 55.0464 151.36 54.207 151.36 53.1683C151.36 52.8624 151.288 52.5778 151.16 52.3288C151.061 52.1225 150.918 51.9376 150.748 51.7882L142.737 41.2166C145.889 41.0032 148.5 39.865 150.577 37.7876C152.697 35.6676 153.764 33.0425 153.764 29.9266" fill="white"></path>
    <path d="M121.374 52.2506L107.615 20.2158C107.544 19.9739 107.444 19.7392 107.316 19.5258C106.761 18.5654 105.737 17.918 104.549 17.918C103.361 17.918 102.329 18.5582 101.781 19.5186L101.483 20.2158L87.7169 52.4711L87.6529 52.6276C87.5817 52.8197 87.5391 53.026 87.5391 53.2466C87.5391 54.2354 88.3358 55.0322 89.3247 55.0393C89.3247 55.0393 89.3247 55.0393 89.3318 55.0393C89.3318 55.0393 89.3318 55.0393 89.3389 55.0393C90.0361 55.0393 90.6337 54.6338 90.9254 54.0434L91.0036 53.8584L95.5851 43.2797L97.2996 39.1962L103.361 24.9965L103.382 24.9467C103.581 24.4985 104.044 24.1855 104.57 24.1855C105.04 24.1855 105.452 24.4345 105.68 24.7973L105.851 25.1957L111.428 38.5488L113.456 43.2797L118.03 53.8797L118.051 53.9295C118.336 54.5769 118.983 55.0322 119.737 55.0393C119.737 55.0393 119.752 55.0393 119.759 55.0393C119.766 55.0393 119.773 55.0393 119.78 55.0393C120.797 55.0322 121.623 54.1999 121.623 53.1754C121.623 52.9905 121.594 52.8126 121.544 52.649C121.502 52.5067 121.445 52.3787 121.374 52.2506Z" fill="white"></path>
    <path d="M70.8082 67.2765C70.7299 67.2979 70.6517 67.3192 70.5805 67.3334C68.1902 67.9097 65.6932 68.2227 63.125 68.2227C62.7977 68.2227 62.4776 68.2227 62.1575 68.2085C45.0907 67.6963 31.4103 53.7028 31.4103 36.5081V36.4013C31.4601 22.3297 40.6729 10.4136 53.4 6.31584C56.4662 5.32698 59.7315 4.79342 63.1321 4.79342C65.7074 4.79342 68.2187 5.10644 70.6161 5.6898C70.6232 5.6898 70.6303 5.6898 70.6375 5.6898C70.6944 5.71114 70.7513 5.72537 70.8153 5.72537C71.0928 5.72537 71.3204 5.49772 71.3204 5.22027C71.3204 5.0851 71.2635 4.95705 71.1781 4.86456C71.107 4.82188 71.0358 4.78631 70.9647 4.74362C65.8852 2.01181 60.0801 0.460938 53.9051 0.460938C53.1012 0.460938 52.2973 0.489394 51.5077 0.539193C33.4734 1.72725 19.0745 16.1475 17.922 34.1675C17.8722 34.943 17.8438 35.7184 17.8438 36.5081C17.8438 54.6917 31.3036 69.7238 48.8043 72.1924C50.4619 72.4271 52.1621 72.5481 53.8838 72.5481C60.0659 72.5481 65.8852 70.9901 70.9647 68.2512C71.0074 68.2298 71.043 68.2085 71.0856 68.18C71.2137 68.0875 71.2991 67.9452 71.2991 67.7816C71.2991 67.5042 71.0785 67.2836 70.8011 67.2836" fill="#A4CE4E"></path>
    <path d="M12.4593 16.239C13.0711 16.239 13.6616 16.1678 14.2307 16.0327C17.5601 15.2359 20.0358 12.2408 20.0358 8.66245C20.0358 8.24272 20.0003 7.83721 19.9362 7.43883C19.3529 3.83909 16.2298 1.08594 12.4593 1.08594C9.79865 1.08594 7.45811 2.45896 6.10644 4.52916C5.331 5.71721 4.88281 7.13292 4.88281 8.65534C4.88281 12.8384 8.27624 16.2318 12.4593 16.2318" fill="#A4CE4E"></path>
    <path d="M22.2763 65.9981C22.2763 65.9981 22.2621 65.9839 22.2621 65.9768C15.0555 58.2509 10.6448 47.8856 10.6448 36.4817C10.6448 34.1199 10.8369 31.7936 11.1997 29.5313C11.3633 28.5282 11.5625 27.5322 11.7902 26.5576C11.9324 25.9458 12.0889 25.334 12.2597 24.7364C12.2739 24.5514 12.2881 24.3664 12.2881 24.1815C12.2881 23.8542 12.2597 23.527 12.2099 23.214C11.9395 21.5421 10.972 20.1122 9.62747 19.2087C9.20062 18.9242 8.7382 18.6894 8.24022 18.5187C7.62841 18.3123 6.98102 18.1914 6.29807 18.1914C4.1923 18.1914 2.34263 19.2727 1.27552 20.9161C0.962498 21.3927 0.720619 21.9121 0.556995 22.467C0.464511 23.0717 0.386256 23.6835 0.315115 24.2953C0.130149 25.9315 0.0234375 27.5891 0.0234375 29.2752C0.0234375 45.2534 8.68841 59.197 21.572 66.6882C21.6432 66.7309 21.7072 66.7664 21.7783 66.8091C21.8281 66.8234 21.8779 66.8376 21.9349 66.8376C21.9918 66.8376 22.0487 66.8234 22.0985 66.802C22.1412 66.7807 22.1767 66.7593 22.2194 66.7309C22.3475 66.6384 22.4328 66.4961 22.4328 66.3325C22.4328 66.1973 22.383 66.0835 22.2977 65.991" fill="#A4CE4E"></path>
    <path d="M179.867 51.6886H164.721V38.0011H179.049C179.049 38.0011 179.063 38.0011 179.078 38.0011C179.092 38.0011 179.092 38.0011 179.106 38.0011C180.002 37.9868 180.728 37.2754 180.771 36.3862C180.771 36.3577 180.778 36.3292 180.778 36.3008C180.778 36.2723 180.771 36.2439 180.771 36.2154C180.728 35.3617 180.059 34.6788 179.206 34.6148H164.728V21.2972H179.512C179.512 21.2972 179.576 21.3043 179.611 21.3043C179.647 21.3043 179.675 21.2972 179.711 21.2972C180.6 21.2474 181.304 20.5146 181.304 19.6111C181.304 18.7076 180.543 17.918 179.611 17.918H162.865C161.84 17.918 161.008 18.7503 161.008 19.7747V53.1825C161.008 54.207 161.84 55.0393 162.865 55.0393H179.618C180.55 55.0393 181.311 54.2852 181.311 53.3462C181.311 52.4996 180.685 51.8024 179.874 51.6815" fill="white"></path>
    <path d="M194.141 17.1481C194.923 17.0201 195.948 16.9062 197.249 16.9062C198.85 16.9062 200.024 17.2762 200.771 17.952C201.461 18.5496 201.867 19.4602 201.867 20.5771C201.867 21.694 201.532 22.6046 200.899 23.2591C200.038 24.1697 198.644 24.6393 197.065 24.6393C196.581 24.6393 196.133 24.6179 195.763 24.5254V29.5551H194.141V17.1481ZM195.763 23.2022C196.118 23.2947 196.567 23.3303 197.107 23.3303C199.064 23.3303 200.252 22.3841 200.252 20.6483C200.252 18.9124 199.078 18.1868 197.292 18.1868C196.581 18.1868 196.047 18.2437 195.763 18.3148V23.1951V23.2022Z" fill="#A4CE4E"></path>
    <path d="M207.56 17V22.2502H213.635V17H215.271V29.5564H213.635V23.673H207.56V29.5564H205.938V17H207.56Z" fill="#A4CE4E"></path>
    <path d="M230.694 23.1482C230.694 27.4736 228.069 29.7643 224.86 29.7643C221.652 29.7643 219.219 27.1961 219.219 23.3901C219.219 19.4062 221.694 16.7953 225.052 16.7953C228.41 16.7953 230.694 19.4204 230.694 23.1482ZM220.955 23.3545C220.955 26.0365 222.406 28.4411 224.96 28.4411C227.514 28.4411 228.986 26.0721 228.986 23.2264C228.986 20.7294 227.685 18.1256 224.981 18.1256C222.278 18.1256 220.955 20.6013 220.955 23.3616V23.3545ZM224.248 14.1133L225.963 16.276H224.64L222.256 14.1133H224.248Z" fill="#A4CE4E"></path>
    <path d="M234.68 29.5564V17H236.451L240.478 23.3529C241.41 24.8255 242.135 26.1487 242.733 27.4293L242.768 27.4079C242.619 25.729 242.583 24.2066 242.583 22.2502V17H244.113V29.5564H242.477L238.493 23.1821C237.618 21.7878 236.778 20.3507 236.145 18.9919L236.088 19.0133C236.181 20.5997 236.216 22.1079 236.216 24.1923V29.5564H234.687H234.68Z" fill="#A4CE4E"></path>
    <path d="M258.379 29.0013C257.654 29.2645 256.217 29.6914 254.523 29.6914C252.624 29.6914 251.059 29.2076 249.828 28.0338C248.747 26.988 248.078 25.3162 248.078 23.3598C248.099 19.6178 250.668 16.8789 254.879 16.8789C256.33 16.8789 257.469 17.199 258.009 17.4551L257.618 18.7784C256.949 18.4796 256.11 18.2377 254.844 18.2377C251.792 18.2377 249.793 20.1372 249.793 23.2887C249.793 26.4403 251.713 28.3539 254.637 28.3539C255.697 28.3539 256.423 28.2045 256.8 28.0196V24.2776H254.246V22.9757H258.379V29.0084V29.0013Z" fill="#A4CE4E"></path>
    <path d="M268.578 17H270.2V23.0541H270.257C270.591 22.5703 270.926 22.1221 271.246 21.7166L275.08 17.0071H277.094L272.548 22.3356L277.449 29.5635H275.529L271.395 23.3956L270.2 24.7757V29.5635H268.578V17Z" fill="#A4CE4E"></path>
    <path d="M282.177 17V22.2502H288.252V17H289.888V29.5564H288.252V23.673H282.177V29.5564H280.555V17H282.177Z" fill="#A4CE4E"></path>
    <path d="M296.621 25.6099L295.32 29.5583H293.641L297.909 17.0019H299.865L304.148 29.5583H302.412L301.068 25.6099H296.614H296.621ZM300.74 24.3436L299.51 20.7297C299.232 19.9116 299.047 19.1646 298.855 18.4389H298.82C298.635 19.1859 298.428 19.9471 298.187 20.7083L296.956 24.3436H300.74ZM301.637 14.1562L299.268 16.3332H297.923L299.659 14.1562H301.637Z" fill="#A4CE4E"></path>
    <path d="M318.382 24.0423C318.289 22.2922 318.175 20.1864 318.197 18.6213H318.14C317.713 20.0939 317.187 21.659 316.553 23.3878L314.334 29.4774H313.103L311.076 23.4945C310.478 21.7231 309.98 20.101 309.624 18.6142H309.589C309.553 20.1793 309.461 22.2851 309.347 24.1632L309.012 29.5486H307.469L308.344 16.9922H310.414L312.555 23.0676C313.075 24.6114 313.502 25.9915 313.822 27.2934H313.879C314.192 26.0271 314.64 24.647 315.202 23.0676L317.436 16.9922H319.506L320.288 29.5486H318.702L318.382 24.0351V24.0423Z" fill="#A4CE4E"></path>
    <path d="M340.847 31.3982C339.154 30.95 337.497 30.452 336.038 29.9469C335.775 29.8544 335.519 29.762 335.277 29.762C332.296 29.6481 329.742 27.4499 329.742 23.4091C329.742 19.3683 332.204 16.793 335.59 16.793C338.976 16.793 341.217 19.4394 341.217 23.1459C341.217 26.3685 339.73 28.4387 337.639 29.1644V29.2355C338.884 29.5557 340.25 29.8473 341.31 30.0394L340.847 31.3982ZM339.503 23.2241C339.503 20.7057 338.201 18.1233 335.533 18.1233C332.865 18.1233 331.457 20.6559 331.471 23.3735C331.45 26.0342 332.922 28.4387 335.455 28.4387C337.987 28.4387 339.496 26.0911 339.496 23.2241H339.503Z" fill="#A4CE4E"></path>
    <path d="M346.83 17V24.4342C346.83 27.2443 348.075 28.4395 349.754 28.4395C351.618 28.4395 352.806 27.2087 352.806 24.4342V17H354.442V24.3204C354.442 28.1762 352.415 29.7627 349.69 29.7627C347.122 29.7627 345.18 28.2901 345.18 24.3987V17H346.816H346.83Z" fill="#A4CE4E"></path>
    <path d="M369.881 23.1472C369.881 27.4726 367.256 29.7633 364.048 29.7633C360.839 29.7633 358.406 27.1951 358.406 23.3891C358.406 19.4052 360.882 16.7943 364.24 16.7943C367.598 16.7943 369.881 19.4194 369.881 23.1472ZM360.142 23.3535C360.142 26.0355 361.593 28.4401 364.147 28.4401C366.701 28.4401 368.174 26.0711 368.174 23.2254C368.174 20.7284 366.872 18.1246 364.169 18.1246C361.465 18.1246 360.142 20.6003 360.142 23.3606V23.3535ZM364.894 14.2048L366.666 16.3248H365.364L364.318 15.0229H364.282L363.258 16.3248H362.013L363.728 14.2048H364.901H364.894ZM368.992 12.7891L366.737 14.7454H365.769L367.334 12.7891H368.992Z" fill="#A4CE4E"></path>
    <path d="M382.644 29.1509C382.046 29.4496 380.858 29.7484 379.329 29.7484C375.786 29.7484 373.125 27.5146 373.125 23.3955C373.125 19.2765 375.786 16.8008 379.684 16.8008C381.249 16.8008 382.238 17.1351 382.665 17.3628L382.274 18.686C381.662 18.3872 380.787 18.1667 379.741 18.1667C376.796 18.1667 374.84 20.0448 374.84 23.3457C374.84 26.419 376.611 28.3968 379.663 28.3968C380.652 28.3968 381.655 28.1904 382.309 27.8774L382.644 29.1651V29.1509Z" fill="#A4CE4E"></path>
    <path d="M394.008 18.3801H390.188V17H399.486V18.3801H395.651V29.5564H394.015V18.3801H394.008Z" fill="#A4CE4E"></path>
    <path d="M409.261 23.6743H404.381V28.1989H409.823V29.5577H402.766V17.0013H409.545V18.3601H404.388V22.3298H409.268V23.6672L409.261 23.6743ZM406.799 14.2126L408.571 16.3326H407.269L406.244 15.0307H406.209L405.163 16.3326H403.918L405.633 14.2126H406.806H406.799ZM410.897 12.7969L408.642 14.7533H407.674L409.239 12.7969H410.897Z" fill="#A4CE4E"></path>
    <path d="M421.263 17V29.5564H419.641V17H421.263Z" fill="#A4CE4E"></path>
    <path d="M434.753 29.1509C434.155 29.4496 432.967 29.7484 431.438 29.7484C427.895 29.7484 425.234 27.5146 425.234 23.3955C425.234 19.2765 427.895 16.8008 431.794 16.8008C433.359 16.8008 434.348 17.1351 434.774 17.3628L434.383 18.686C433.771 18.3872 432.896 18.1667 431.85 18.1667C428.905 18.1667 426.949 20.0448 426.949 23.3457C426.949 26.419 428.72 28.3968 431.772 28.3968C432.761 28.3968 433.764 28.1904 434.419 27.8774L434.753 29.1651V29.1509Z" fill="#A4CE4E"></path>
    <path d="M447.05 29.1509C446.452 29.4496 445.264 29.7484 443.735 29.7484C440.192 29.7484 437.531 27.5146 437.531 23.3955C437.531 19.2765 440.192 16.8008 444.09 16.8008C445.656 16.8008 446.644 17.1351 447.071 17.3628L446.68 18.686C446.068 18.3872 445.193 18.1667 444.147 18.1667C441.202 18.1667 439.246 20.0448 439.246 23.3457C439.246 26.419 441.017 28.3968 444.069 28.3968C445.058 28.3968 446.061 28.1904 446.716 27.8774L447.05 29.1651V29.1509Z" fill="#A4CE4E"></path>
    <path d="M453.075 25.6081L451.773 29.5564H450.094L454.362 17H456.319L460.601 29.5564H458.865L457.528 25.6081H453.075ZM457.194 24.3417L455.963 20.7278C455.685 19.9097 455.5 19.1627 455.308 18.437H455.273C455.088 19.184 454.882 19.9452 454.64 20.7064L453.409 24.3417H457.194Z" fill="#A4CE4E"></path>
    <path d="M464.327 17.1695C465.145 16.9987 466.319 16.9062 467.436 16.9062C469.171 16.9062 470.288 17.2264 471.071 17.9307C471.704 18.4927 472.06 19.3464 472.06 20.3139C472.06 21.9715 471.014 23.0742 469.691 23.5152V23.5722C470.658 23.9065 471.235 24.8029 471.533 26.1048C471.946 27.8548 472.245 29.0642 472.501 29.548H470.822C470.616 29.1923 470.338 28.111 469.982 26.5458C469.613 24.81 468.937 24.1626 467.464 24.1057H465.935V29.548H464.312V17.1695H464.327ZM465.949 22.8892H467.606C469.335 22.8892 470.438 21.9359 470.438 20.506C470.438 18.884 469.264 18.1797 467.549 18.1583C466.767 18.1583 466.212 18.2295 465.949 18.3077V22.8892Z" fill="#A4CE4E"></path>
    <path d="M482.73 23.673H477.849V28.1976H483.292V29.5564H476.234V17H483.014V18.3588H477.856V22.3285H482.737V23.6659L482.73 23.673Z" fill="#A4CE4E"></path>
    <path d="M196.523 40.9387H192.703V39.5586H202.001V40.9387H198.167V52.115H196.531V40.9387H196.523Z" fill="#A4CE4E"></path>
    <path d="M204.335 39.7242C205.153 39.5534 206.326 39.4609 207.443 39.4609C209.179 39.4609 210.296 39.774 211.079 40.4854C211.712 41.0474 212.068 41.9011 212.068 42.8686C212.068 44.5262 211.022 45.6289 209.699 46.0699V46.1268C210.666 46.4612 211.242 47.3576 211.541 48.6595C211.954 50.4095 212.253 51.6189 212.509 52.1027H210.83C210.623 51.747 210.346 50.6656 209.99 49.1005C209.62 47.3718 208.944 46.7173 207.472 46.6604H205.942V52.1027H204.32V39.717L204.335 39.7242ZM205.957 45.4439H207.614C209.343 45.4439 210.446 44.4977 210.446 43.0607C210.446 41.4387 209.272 40.7344 207.557 40.713C206.775 40.713 206.22 40.7842 205.957 40.8624V45.4439Z" fill="#A4CE4E"></path>
    <path d="M215.195 54.5338C215.195 54.05 215.608 53.6018 216.127 53.6018C216.647 53.6018 217.024 54.05 217.024 54.5338C217.024 55.0175 216.654 55.4799 216.127 55.4799C215.601 55.4799 215.195 55.0175 215.195 54.5338ZM216.91 39.5586V52.115H215.288V39.5586H216.91Z" fill="#A4CE4E"></path>
    <path d="M225.555 39.5586H227.177V50.7562H232.541V52.115H225.555V39.5586Z" fill="#A4CE4E"></path>
    <path d="M236.903 39.5586V52.115H235.281V39.5586H236.903Z" fill="#A4CE4E"></path>
    <path d="M247.167 46.2235H242.287V50.748H247.729V52.1068H240.672V39.5504H247.452V40.9092H242.294V44.8789H247.174V46.2235H247.167ZM244.656 36.7617L246.612 38.8817H245.232L244.037 37.5941H244.001L242.827 38.8817H241.483L243.404 36.7617H244.649H244.656ZM243.311 54.5327C243.311 54.049 243.724 53.6008 244.264 53.6008C244.77 53.6008 245.161 54.049 245.161 54.5327C245.161 55.0165 244.77 55.4789 244.25 55.4789C243.731 55.4789 243.318 55.0165 243.318 54.5327H243.311Z" fill="#A4CE4E"></path>
    <path d="M252.385 39.5586V46.9928C252.385 49.8029 253.63 50.9981 255.309 50.9981C257.173 50.9981 258.361 49.7673 258.361 46.9928V39.5586H259.997V46.879C259.997 50.7348 257.969 52.3213 255.245 52.3213C252.677 52.3213 250.734 50.8487 250.734 46.9573V39.5657H252.371L252.385 39.5586Z" fill="#A4CE4E"></path>
    <path d="M275.506 52.1157L273.905 49.3412C273.251 48.2812 272.845 47.5911 272.454 46.8655H272.418C272.063 47.5911 271.707 48.2598 271.06 49.3625L269.551 52.1228H267.688L271.522 45.7699L267.837 39.5664H269.715L271.373 42.5116C271.842 43.3298 272.191 43.9629 272.525 44.6388H272.582C272.938 43.8918 273.251 43.3155 273.72 42.5116L275.435 39.5664H277.299L273.478 45.6774L277.391 52.1228H275.513L275.506 52.1157Z" fill="#A4CE4E"></path>
    <path d="M291.086 37.5469C291.271 37.9595 291.406 38.4219 291.406 38.9412C291.406 39.8518 290.844 40.485 289.728 40.5277L289.45 40.549V46.8806C289.45 50.7364 287.423 52.3229 284.698 52.3229C282.13 52.3229 280.188 50.8502 280.188 46.9588V39.5673H281.824V47.0015C281.824 49.8116 283.069 51.0067 284.748 51.0067C286.612 51.0067 287.8 49.776 287.8 47.0015V39.5673H289.272C289.905 39.5673 290.133 39.3467 290.133 38.8559C290.133 38.5002 290.019 38.1089 289.834 37.7745L291.079 37.554L291.086 37.5469Z" fill="#A4CE4E"></path>
    <path d="M304.646 38.0852C304.831 38.4979 304.98 38.9816 304.98 39.6148C304.98 40.6392 304.368 41.4004 303.024 41.2724C303.863 42.2399 304.475 43.7481 304.475 45.7044C304.475 50.0227 301.85 52.3134 298.641 52.3134C295.433 52.3134 293 49.7452 293 45.9392C293 41.9553 295.476 39.3444 298.834 39.3444C299.581 39.3444 300.285 39.4938 300.769 39.6646C301.345 39.8495 302.241 40.3333 302.839 40.3333C303.436 40.3333 303.678 40.0558 303.678 39.5152C303.678 39.067 303.55 38.6615 303.379 38.32L304.646 38.0781V38.0852ZM302.768 45.7756C302.768 43.2785 301.466 40.6748 298.762 40.6748C296.059 40.6748 294.722 43.1932 294.736 45.9107C294.714 48.5572 296.173 50.9973 298.741 50.9973C301.309 50.9973 302.768 48.6283 302.768 45.7827V45.7756Z" fill="#A4CE4E"></path>
    <path d="M307.516 52.115V39.5586H309.287L313.314 45.9115C314.246 47.3841 314.971 48.7073 315.569 49.9879L315.604 49.9665C315.455 48.2876 315.419 46.7652 315.419 44.8088V39.5586H316.949V52.115H315.313L311.329 45.7407C310.454 44.3464 309.614 42.9093 308.981 41.5505L308.924 41.5719C309.017 43.1583 309.052 44.6665 309.052 46.7509V52.115H307.523H307.516Z" fill="#A4CE4E"></path>
    <path d="M330.27 51.5521C329.544 51.8153 328.107 52.2422 326.414 52.2422C324.515 52.2422 322.95 51.7584 321.719 50.5846C320.637 49.5388 319.969 47.867 319.969 45.9106C319.99 42.1686 322.558 39.4297 326.77 39.4297C328.221 39.4297 329.359 39.7498 329.9 40.0059L329.509 41.3292C328.84 41.0304 328.001 40.7885 326.734 40.7885C323.682 40.7885 321.683 42.6879 321.683 45.8395C321.683 48.991 323.604 50.9047 326.528 50.9047C327.588 50.9047 328.314 50.7553 328.691 50.5704V46.8283H326.137V45.5265H330.27V51.5592V51.5521Z" fill="#A4CE4E"></path>
    <path d="M338.555 39.5586H340.177V45.6127H340.234C340.568 45.1289 340.902 44.6807 341.222 44.2681L345.057 39.5586H347.07L342.524 44.887L347.426 52.115H345.505L341.372 45.9471L340.177 47.3272V52.115H338.555V39.5586Z" fill="#A4CE4E"></path>
    <path d="M351.208 39.5586V44.8088H357.283V39.5586H358.92V52.115H357.283V46.2316H351.208V52.115H349.586V39.5586H351.208Z" fill="#A4CE4E"></path>
    <path d="M373.568 38.0872C373.753 38.4998 373.902 38.9835 373.902 39.6167C373.902 40.6411 373.29 41.4023 371.946 41.2743C372.785 42.2418 373.397 43.75 373.397 45.7064C373.397 50.0246 370.772 52.3154 367.563 52.3154C364.355 52.3154 361.922 49.7472 361.922 45.9411C361.922 41.9572 364.398 39.3464 367.755 39.3464C368.502 39.3464 369.207 39.4958 369.69 39.6665C370.267 39.8515 371.163 40.3352 371.761 40.3352C372.358 40.3352 372.6 40.0578 372.6 39.5171C372.6 39.0689 372.472 38.6634 372.301 38.3219L373.568 38.0801V38.0872ZM371.69 45.7775C371.69 43.2805 370.388 40.6767 367.684 40.6767C364.981 40.6767 363.643 43.1951 363.658 45.9127C363.636 48.5591 365.095 50.9993 367.663 50.9993C370.231 50.9993 371.69 48.6303 371.69 45.7846V45.7775ZM370.551 36.707L368.168 38.8839H366.845L368.559 36.707H370.551Z" fill="#A4CE4E"></path>
    <path d="M376.438 39.7106C377.22 39.5826 378.244 39.4688 379.546 39.4688C381.147 39.4688 382.321 39.8387 383.068 40.5145C383.758 41.1121 384.163 42.0227 384.163 43.1396C384.163 44.2565 383.829 45.1671 383.196 45.8216C382.335 46.7322 380.941 47.2018 379.361 47.2018C378.878 47.2018 378.429 47.1804 378.059 47.0879V52.1176H376.438V39.7106ZM378.059 45.7647C378.415 45.8572 378.863 45.8928 379.404 45.8928C381.36 45.8928 382.548 44.9395 382.548 43.2108C382.548 41.482 381.375 40.7493 379.589 40.7493C378.878 40.7493 378.344 40.8062 378.059 40.8773V45.7576V45.7647Z" fill="#A4CE4E"></path>
    <path d="M400.933 51.7016C400.335 52.0004 399.147 52.2992 397.618 52.2992C394.075 52.2992 391.414 50.0654 391.414 45.9463C391.414 41.8273 394.075 39.3516 397.973 39.3516C399.538 39.3516 400.527 39.6859 400.954 39.9136L400.563 41.2368C399.951 40.938 399.076 40.7175 398.03 40.7175C395.085 40.7175 393.129 42.5956 393.129 45.8965C393.129 48.9698 394.9 50.9475 397.952 50.9475C398.941 50.9475 399.944 50.7412 400.598 50.4282L400.933 51.7159V51.7016Z" fill="#A4CE4E"></path>
    <path d="M414.233 45.7064C414.233 50.0246 411.608 52.3154 408.399 52.3154C405.191 52.3154 402.758 49.7472 402.758 45.9411C402.758 41.9572 405.233 39.3464 408.591 39.3464C411.949 39.3464 414.233 41.9715 414.233 45.6993V45.7064ZM404.494 45.9127C404.494 48.5947 405.945 50.9992 408.499 50.9992C411.053 50.9992 412.525 48.6303 412.525 45.7846C412.525 43.2876 411.224 40.6838 408.52 40.6838C405.817 40.6838 404.494 43.1595 404.494 45.9198V45.9127ZM409.111 36.707L411.067 38.8341H409.687L408.492 37.5465H408.456L407.282 38.8341H405.938L407.859 36.707H409.104H409.111ZM407.581 54.535C407.581 54.0512 407.994 53.603 408.527 53.603C409.032 53.603 409.424 54.0512 409.424 54.535C409.424 55.0187 409.032 55.4811 408.513 55.4811C407.994 55.4811 407.581 55.0187 407.581 54.535Z" fill="#A4CE4E"></path>
    <path d="M419.195 40.9387H415.375V39.5586H424.673V40.9387H420.839V52.115H419.202V40.9387H419.195Z" fill="#A4CE4E"></path>
    <path d="M431.662 50.1365C432.388 50.5847 433.448 50.9547 434.564 50.9547C436.222 50.9547 437.19 50.0796 437.19 48.8133C437.19 47.6395 436.521 46.9708 434.821 46.3163C432.772 45.5906 431.505 44.5306 431.505 42.7592C431.505 40.8028 433.127 39.3516 435.568 39.3516C436.855 39.3516 437.787 39.6504 438.342 39.9634L437.894 41.2866C437.481 41.0661 436.649 40.689 435.511 40.689C433.796 40.689 433.142 41.7134 433.142 42.5671C433.142 43.741 433.903 44.3172 435.639 44.9859C437.766 45.804 438.84 46.8285 438.84 48.671C438.84 50.6061 437.403 52.285 434.444 52.285C433.234 52.285 431.911 51.9293 431.242 51.4811L431.655 50.1223L431.662 50.1365Z" fill="#A4CE4E"></path>
    <path d="M452.733 45.7058C452.733 50.024 450.108 52.3148 446.899 52.3148C443.691 52.3148 441.258 49.7466 441.258 45.9405C441.258 41.9567 443.734 39.3458 447.091 39.3458C450.449 39.3458 452.733 41.9709 452.733 45.6987V45.7058ZM442.994 45.9121C442.994 48.5941 444.445 50.9987 446.999 50.9987C449.553 50.9987 451.025 48.6297 451.025 45.784C451.025 43.287 449.724 40.6832 447.02 40.6832C444.317 40.6832 442.994 43.1589 442.994 45.9192V45.9121ZM447.746 36.7634L449.517 38.8834H448.215L447.17 37.5815H447.134L446.11 38.8834H444.865L446.579 36.7634H447.753H447.746ZM451.844 35.3477L449.588 37.304H448.621L450.186 35.3477H451.844Z" fill="#A4CE4E"></path>
    <path d="M455.773 52.115V39.5586H457.545L461.571 45.9115C462.503 47.3841 463.229 48.7073 463.827 49.9879L463.862 49.9665C463.713 48.2876 463.677 46.7652 463.677 44.8088V39.5586H465.207V52.115H463.571L459.587 45.7407C458.712 44.3464 457.872 42.9093 457.239 41.5505L457.182 41.5719C457.275 43.1583 457.31 44.6665 457.31 46.7509V52.115H455.781H455.773Z" fill="#A4CE4E"></path>
    <path d="M478.52 51.5521C477.794 51.8153 476.357 52.2422 474.664 52.2422C472.765 52.2422 471.2 51.7584 469.969 50.5846C468.887 49.5388 468.219 47.867 468.219 45.9106C468.24 42.1686 470.808 39.4297 475.02 39.4297C476.471 39.4297 477.609 39.7498 478.15 40.0059L477.759 41.3292C477.09 41.0304 476.251 40.7885 474.984 40.7885C471.932 40.7885 469.933 42.6879 469.933 45.8395C469.933 48.991 471.854 50.9047 474.778 50.9047C475.838 50.9047 476.564 50.7553 476.941 50.5704V46.8283H474.387V45.5265H478.52V51.5592V51.5521Z" fill="#A4CE4E"></path>
    <path d="M86.6506 62.8945V76.2761H84.9219V62.8945H86.6506Z" fill="white"></path>
    <path d="M94.672 69.2696C94.672 68.2736 94.6507 67.4626 94.5938 66.6659H96.1446L96.2442 68.2523H96.2869C96.7636 67.3417 97.8734 66.4453 99.4669 66.4453C100.797 66.4453 102.86 67.2421 102.86 70.5359V76.277H101.11V70.7351C101.11 69.1842 100.534 67.8966 98.8836 67.8966C97.7311 67.8966 96.8347 68.7076 96.543 69.6822C96.4648 69.9028 96.4221 70.2016 96.4221 70.4932V76.2699H94.672V69.2625V69.2696Z" fill="white"></path>
    <path d="M112.584 63.9127V66.6729H115.088V68.0033H112.584V73.1823C112.584 74.3704 112.919 75.0462 113.893 75.0462C114.348 75.0462 114.69 74.9893 114.903 74.9253L114.982 76.2343C114.647 76.3766 114.107 76.469 113.431 76.469C112.62 76.469 111.965 76.2129 111.545 75.7363C111.048 75.217 110.87 74.3633 110.87 73.2321V67.989H109.383V66.6587H110.87V64.3537L112.577 63.8984L112.584 63.9127Z" fill="white"></path>
    <path d="M122.766 71.7965C122.809 74.1584 124.317 75.133 126.06 75.133C127.312 75.133 128.066 74.9125 128.721 74.635L129.02 75.8871C128.401 76.1646 127.355 76.4847 125.825 76.4847C122.866 76.4847 121.102 74.5354 121.102 71.64C121.102 68.7446 122.809 66.4609 125.605 66.4609C128.742 66.4609 129.574 69.2212 129.574 70.9855C129.574 71.3412 129.532 71.6187 129.518 71.7965H122.766ZM127.888 70.5444C127.91 69.4346 127.433 67.7059 125.463 67.7059C123.698 67.7059 122.923 69.335 122.78 70.5444H127.881H127.888Z" fill="white"></path>
    <path d="M136.61 69.6687C136.61 68.5376 136.588 67.5629 136.531 66.6737H138.061L138.118 68.5589H138.196C138.63 67.2712 139.683 66.4531 140.857 66.4531C141.056 66.4531 141.191 66.4745 141.355 66.51V68.1605C141.177 68.1178 140.999 68.1036 140.757 68.1036C139.526 68.1036 138.651 69.0355 138.416 70.3445C138.374 70.5793 138.338 70.8639 138.338 71.1555V76.2777H136.61V69.6687Z" fill="white"></path>
    <path d="M148.047 69.2696C148.047 68.2736 148.026 67.4626 147.969 66.6659H149.52L149.619 68.2523H149.662C150.139 67.3417 151.248 66.4453 152.842 66.4453C154.172 66.4453 156.235 67.2421 156.235 70.5359V76.277H154.485V70.7351C154.485 69.1842 153.909 67.8966 152.259 67.8966C151.106 67.8966 150.21 68.7076 149.918 69.6822C149.84 69.9028 149.797 70.2016 149.797 70.4932V76.2699H148.047V69.2625V69.2696Z" fill="white"></path>
    <path d="M169.247 76.2777L169.105 75.0683H169.048C168.515 75.8224 167.483 76.4982 166.11 76.4982C164.161 76.4982 163.172 75.1252 163.172 73.738C163.172 71.4188 165.235 70.1453 168.949 70.1667V69.9675C168.949 69.1707 168.728 67.7479 166.764 67.7479C165.868 67.7479 164.936 68.0253 164.26 68.4593L163.862 67.3068C164.659 66.7875 165.811 66.4531 167.021 66.4531C169.959 66.4531 170.677 68.4593 170.677 70.3872V73.9798C170.677 74.8122 170.72 75.6303 170.834 76.2848H169.247V76.2777ZM168.991 71.3761C167.085 71.3334 164.922 71.6749 164.922 73.5388C164.922 74.6699 165.676 75.2035 166.572 75.2035C167.824 75.2035 168.621 74.4067 168.899 73.5957C168.956 73.4178 168.998 73.2186 168.998 73.0408V71.3761H168.991Z" fill="white"></path>
    <path d="M180.389 63.9127V66.6729H182.893V68.0033H180.389V73.1823C180.389 74.3704 180.723 75.0462 181.698 75.0462C182.153 75.0462 182.495 74.9893 182.708 74.9253L182.786 76.2343C182.452 76.3766 181.911 76.469 181.235 76.469C180.424 76.469 179.77 76.2129 179.35 75.7363C178.852 75.217 178.674 74.3633 178.674 73.2321V67.989H177.188V66.6587H178.674V64.3537L180.382 63.8984L180.389 63.9127Z" fill="white"></path>
    <path d="M191.663 63.9706C191.684 64.5682 191.243 65.0448 190.553 65.0448C189.941 65.0448 189.5 64.5682 189.5 63.9706C189.5 63.373 189.955 62.875 190.596 62.875C191.236 62.875 191.67 63.3516 191.67 63.9706H191.663ZM189.713 76.278V66.6668H191.464V76.278H189.713Z" fill="white"></path>
    <path d="M207.922 71.3974C207.922 74.9545 205.46 76.4982 203.134 76.4982C200.53 76.4982 198.531 74.5916 198.531 71.5539C198.531 68.3384 200.637 66.4531 203.298 66.4531C205.958 66.4531 207.922 68.4593 207.922 71.3974ZM200.296 71.497C200.296 73.6028 201.505 75.1892 203.212 75.1892C204.92 75.1892 206.129 73.6241 206.129 71.4543C206.129 69.8252 205.318 67.7621 203.248 67.7621C201.178 67.7621 200.288 69.6687 200.288 71.497H200.296Z" fill="white"></path>
    <path d="M214.992 69.2696C214.992 68.2736 214.971 67.4626 214.914 66.6659H216.465L216.565 68.2523H216.607C217.084 67.3417 218.194 66.4453 219.787 66.4453C221.118 66.4453 223.181 67.2421 223.181 70.5359V76.277H221.431V70.7351C221.431 69.1842 220.854 67.8966 219.204 67.8966C218.051 67.8966 217.155 68.7076 216.863 69.6822C216.785 69.9028 216.742 70.2016 216.742 70.4932V76.2699H214.992V69.2625V69.2696Z" fill="white"></path>
    <path d="M236.193 76.2777L236.05 75.0683H235.993C235.46 75.8224 234.428 76.4982 233.055 76.4982C231.106 76.4982 230.117 75.1252 230.117 73.738C230.117 71.4188 232.18 70.1453 235.894 70.1667V69.9675C235.894 69.1707 235.673 67.7479 233.71 67.7479C232.813 67.7479 231.881 68.0253 231.206 68.4593L230.807 67.3068C231.604 66.7875 232.757 66.4531 233.966 66.4531C236.904 66.4531 237.623 68.4593 237.623 70.3872V73.9798C237.623 74.8122 237.665 75.6303 237.779 76.2848H236.193V76.2777ZM235.937 71.3761C234.03 71.3334 231.867 71.6749 231.867 73.5388C231.867 74.6699 232.621 75.2035 233.518 75.2035C234.77 75.2035 235.567 74.4067 235.844 73.5957C235.901 73.4178 235.944 73.2186 235.944 73.0408V71.3761H235.937Z" fill="white"></path>
    <path d="M245.312 62.1836H247.063V76.2766H245.312V62.1836Z" fill="white"></path>
    <path d="M273.348 75.844C272.715 76.1641 271.441 76.4771 269.812 76.4771C266.042 76.4771 263.203 74.0939 263.203 69.7045C263.203 65.3151 266.042 62.6758 270.189 62.6758C271.854 62.6758 272.907 63.0315 273.369 63.2734L272.949 64.682C272.295 64.3618 271.363 64.1271 270.246 64.1271C267.109 64.1271 265.024 66.1332 265.024 69.6476C265.024 72.9272 266.91 75.0259 270.168 75.0259C271.221 75.0259 272.295 74.8053 272.985 74.4709L273.341 75.844H273.348Z" fill="white"></path>
    <path d="M280.312 62.1836H282.063V68.1808H282.105C282.383 67.6828 282.817 67.2488 283.357 66.95C283.877 66.6512 284.488 66.4521 285.143 66.4521C286.431 66.4521 288.501 67.2488 288.501 70.564V76.2837H286.751V70.7632C286.751 69.2123 286.175 67.9033 284.524 67.9033C283.393 67.9033 282.497 68.7001 282.184 69.6534C282.084 69.8882 282.063 70.1514 282.063 70.4857V76.2837H280.312V62.1907V62.1836Z" fill="white"></path>
    <path d="M298.147 63.9706C298.168 64.5682 297.727 65.0448 297.037 65.0448C296.425 65.0448 295.984 64.5682 295.984 63.9706C295.984 63.373 296.44 62.875 297.08 62.875C297.72 62.875 298.154 63.3516 298.154 63.9706H298.147ZM296.198 76.278V66.6668H297.948V76.278H296.198Z" fill="white"></path>
    <path d="M305.711 69.6687C305.711 68.5376 305.69 67.5629 305.633 66.6737H307.162L307.219 68.5589H307.298C307.731 67.2712 308.784 66.4531 309.958 66.4531C310.157 66.4531 310.293 66.4745 310.456 66.51V68.1605C310.278 68.1178 310.1 68.1036 309.859 68.1036C308.628 68.1036 307.753 69.0355 307.518 70.3445C307.475 70.5793 307.44 70.8639 307.44 71.1555V76.2777H305.711V69.6687Z" fill="white"></path>
    <path d="M325.562 71.3974C325.562 74.9545 323.101 76.4982 320.775 76.4982C318.171 76.4982 316.172 74.5916 316.172 71.5539C316.172 68.3384 318.278 66.4531 320.938 66.4531C323.599 66.4531 325.562 68.4593 325.562 71.3974ZM317.936 71.497C317.936 73.6028 319.146 75.1892 320.853 75.1892C322.56 75.1892 323.77 73.6241 323.77 71.4543C323.77 69.8252 322.959 67.7621 320.889 67.7621C318.818 67.7621 317.929 69.6687 317.929 71.497H317.936Z" fill="white"></path>
    <path d="M332.625 69.8039C332.625 68.5731 332.582 67.5772 332.547 66.6666H334.119L334.197 68.317H334.24C334.951 67.1432 336.09 66.4531 337.655 66.4531C339.981 66.4531 341.724 68.4166 341.724 71.3405C341.724 74.798 339.618 76.5053 337.356 76.5053C336.083 76.5053 334.973 75.9504 334.397 74.9972H334.354V80.2189H332.625V69.8181V69.8039ZM334.354 72.3649C334.354 72.621 334.397 72.8629 334.432 73.0763C334.752 74.2857 335.805 75.1252 337.05 75.1252C338.9 75.1252 339.967 73.617 339.967 71.4117C339.967 69.4837 338.957 67.8404 337.107 67.8404C335.919 67.8404 334.802 68.6941 334.468 70.0031C334.411 70.2236 334.347 70.4797 334.347 70.7145V72.3649H334.354Z" fill="white"></path>
    <path d="M348.789 69.6687C348.789 68.5376 348.768 67.5629 348.711 66.6737H350.24L350.297 68.5589H350.376C350.81 67.2712 351.862 66.4531 353.036 66.4531C353.236 66.4531 353.371 66.4745 353.534 66.51V68.1605C353.356 68.1178 353.179 68.1036 352.937 68.1036C351.706 68.1036 350.831 69.0355 350.596 70.3445C350.553 70.5793 350.518 70.8639 350.518 71.1555V76.2777H348.789V69.6687Z" fill="white"></path>
    <path d="M365.365 76.2777L365.222 75.0683H365.165C364.632 75.8224 363.6 76.4982 362.227 76.4982C360.278 76.4982 359.289 75.1252 359.289 73.738C359.289 71.4188 361.352 70.1453 365.066 70.1667V69.9675C365.066 69.1707 364.845 67.7479 362.882 67.7479C361.985 67.7479 361.053 68.0253 360.378 68.4593L359.979 67.3068C360.776 66.7875 361.928 66.4531 363.138 66.4531C366.076 66.4531 366.794 68.4593 366.794 70.3872V73.9798C366.794 74.8122 366.837 75.6303 366.951 76.2848H365.365V76.2777ZM365.108 71.3761C363.202 71.3334 361.039 71.6749 361.039 73.5388C361.039 74.6699 361.793 75.2035 362.69 75.2035C363.942 75.2035 364.738 74.4067 365.016 73.5957C365.073 73.4178 365.115 73.2186 365.115 73.0408V71.3761H365.108Z" fill="white"></path>
    <path d="M381.329 75.9202C380.874 76.1549 379.857 76.4751 378.569 76.4751C375.674 76.4751 373.781 74.5116 373.781 71.5735C373.781 68.6353 375.809 66.4727 378.946 66.4727C379.978 66.4727 380.895 66.7288 381.372 66.9706L380.974 68.3223C380.554 68.0876 379.899 67.867 378.946 67.867C376.741 67.867 375.553 69.4961 375.553 71.5023C375.553 73.729 376.983 75.0949 378.889 75.0949C379.878 75.0949 380.54 74.8388 381.031 74.6183L381.329 75.9273V75.9202Z" fill="white"></path>
    <path d="M390.608 63.9127V66.6729H393.112V68.0033H390.608V73.1823C390.608 74.3704 390.942 75.0462 391.917 75.0462C392.372 75.0462 392.713 74.9893 392.927 74.9253L393.005 76.2343C392.671 76.3766 392.13 76.469 391.454 76.469C390.643 76.469 389.989 76.2129 389.569 75.7363C389.071 75.217 388.893 74.3633 388.893 73.2321V67.989H387.406V66.6587H388.893V64.3537L390.6 63.8984L390.608 63.9127Z" fill="white"></path>
    <path d="M401.881 63.9706C401.903 64.5682 401.462 65.0448 400.772 65.0448C400.16 65.0448 399.719 64.5682 399.719 63.9706C399.719 63.373 400.174 62.875 400.814 62.875C401.455 62.875 401.889 63.3516 401.889 63.9706H401.881ZM399.932 76.278V66.6668H401.682V76.278H399.932Z" fill="white"></path>
    <path d="M416.298 75.9202C415.843 76.1549 414.825 76.4751 413.538 76.4751C410.642 76.4751 408.75 74.5116 408.75 71.5735C408.75 68.6353 410.778 66.4727 413.915 66.4727C414.946 66.4727 415.864 66.7288 416.341 66.9706L415.942 68.3223C415.523 68.0876 414.868 67.867 413.915 67.867C411.709 67.867 410.521 69.4961 410.521 71.5023C410.521 73.729 411.951 75.0949 413.858 75.0949C414.847 75.0949 415.508 74.8388 415.999 74.6183L416.298 75.9273V75.9202Z" fill="white"></path>
    <path d="M441.684 75.844C441.051 76.1641 439.777 76.4771 438.148 76.4771C434.378 76.4771 431.539 74.0939 431.539 69.7045C431.539 65.3151 434.378 62.6758 438.525 62.6758C440.19 62.6758 441.243 63.0315 441.705 63.2734L441.285 64.682C440.631 64.3618 439.699 64.1271 438.582 64.1271C435.445 64.1271 433.36 66.1332 433.36 69.6476C433.36 72.9272 435.246 75.0259 438.504 75.0259C439.557 75.0259 440.631 74.8053 441.321 74.4709L441.677 75.844H441.684Z" fill="white"></path>
    <path d="M448.656 62.1836H450.406V76.2766H448.656V62.1836Z" fill="white"></path>
    <path d="M460.155 63.9706C460.176 64.5682 459.735 65.0448 459.045 65.0448C458.433 65.0448 457.992 64.5682 457.992 63.9706C457.992 63.373 458.447 62.875 459.088 62.875C459.728 62.875 460.162 63.3516 460.162 63.9706H460.155ZM458.206 76.278V66.6668H459.956V76.278H458.206Z" fill="white"></path>
    <path d="M467.719 69.2696C467.719 68.2736 467.698 67.4626 467.641 66.6659H469.191L469.291 68.2523H469.334C469.81 67.3417 470.92 66.4453 472.514 66.4453C473.844 66.4453 475.907 67.2421 475.907 70.5359V76.277H474.157V70.7351C474.157 69.1842 473.581 67.8966 471.93 67.8966C470.778 67.8966 469.882 68.7076 469.59 69.6822C469.512 69.9028 469.469 70.2016 469.469 70.4932V76.2699H467.719V69.2625V69.2696Z" fill="white"></path>
    <path d="M485.546 63.9706C485.567 64.5682 485.126 65.0448 484.436 65.0448C483.824 65.0448 483.383 64.5682 483.383 63.9706C483.383 63.373 483.838 62.875 484.478 62.875C485.119 62.875 485.553 63.3516 485.553 63.9706H485.546ZM483.596 76.278V66.6668H485.346V76.278H483.596Z" fill="white"></path>
    <path d="M499.962 75.9202C499.507 76.1549 498.49 76.4751 497.202 76.4751C494.306 76.4751 492.414 74.5116 492.414 71.5735C492.414 68.6353 494.442 66.4727 497.579 66.4727C498.61 66.4727 499.528 66.7288 500.005 66.9706L499.606 68.3223C499.187 68.0876 498.532 67.867 497.579 67.867C495.374 67.867 494.185 69.4961 494.185 71.5023C494.185 73.729 495.615 75.0949 497.522 75.0949C498.511 75.0949 499.172 74.8388 499.663 74.6183L499.962 75.9273V75.9202Z" fill="white"></path>
  </g>
  <defs>
    <clipPath id="clip0_1015_6605">
      <rect width="500" height="79.7419" fill="white" transform="translate(0 0.46875)"></rect>
    </clipPath>
  </defs>
</svg>
